<svg xmlns="http://www.w3.org/2000/svg" width="20" height="20" viewBox="0 0 20 20" fill="none">
  <g clip-path="url(#clip0_4_2552)">
    <rect width="20" height="20" rx="5" fill="#EEEEEE" fill-opacity="0.6"/>
    <path d="M10.7906 2.66651C11.0062 2.66651 11.1991 2.8007 11.2717 3.00163L11.7894 4.43675C11.9749 4.48295 12.134 4.52915 12.269 4.57755C12.4163 4.63035 12.6063 4.71028 12.8409 4.81955L14.0465 4.18155C14.1449 4.12942 14.2575 4.1106 14.3676 4.12792C14.4776 4.14524 14.579 4.19777 14.6566 4.27762L15.717 5.37394C15.8578 5.51987 15.8974 5.73327 15.8182 5.91953L15.2528 7.24465C15.3466 7.41698 15.4214 7.56438 15.4786 7.68758C15.5402 7.82178 15.6165 8.00657 15.7074 8.2449L17.0252 8.80956C17.2232 8.8939 17.3456 9.09189 17.3324 9.30382L17.2356 10.8255C17.229 10.9243 17.1935 11.0191 17.1336 11.0979C17.0736 11.1768 16.9918 11.2363 16.8983 11.2691L15.6502 11.7128C15.6143 11.8851 15.5769 12.0325 15.5373 12.1572C15.4734 12.3497 15.4005 12.5391 15.3188 12.7248L15.9458 14.1108C15.99 14.2081 16.0019 14.3171 15.9798 14.4218C15.9576 14.5264 15.9025 14.6212 15.8226 14.6923L14.6302 15.7571C14.5517 15.8269 14.4537 15.8711 14.3494 15.8837C14.245 15.8962 14.1394 15.8766 14.0465 15.8275L12.8175 15.1763C12.6252 15.2781 12.4268 15.368 12.2235 15.4454L11.6867 15.6463L11.2101 16.9663C11.1747 17.063 11.111 17.1467 11.0273 17.2065C10.9435 17.2663 10.8436 17.2994 10.7407 17.3015L9.34745 17.333C9.24183 17.3358 9.13794 17.3057 9.05009 17.247C8.96223 17.1883 8.89473 17.1038 8.85687 17.0052L8.29516 15.5187C8.1035 15.4532 7.91375 15.3823 7.72611 15.3061C7.57264 15.2397 7.42149 15.168 7.27293 15.0912L5.87964 15.6867C5.78784 15.7258 5.68662 15.7375 5.58833 15.7202C5.49003 15.7028 5.39889 15.6573 5.32599 15.5891L4.29496 14.6219C4.2182 14.5502 4.16592 14.4562 4.14552 14.3531C4.12513 14.2501 4.13764 14.1432 4.1813 14.0477L4.78041 12.7424C4.70073 12.5878 4.62686 12.4302 4.55895 12.2701C4.47968 12.0741 4.40632 11.8758 4.33896 11.6754L3.02634 11.2757C2.91964 11.2435 2.82658 11.1769 2.76161 11.0863C2.69663 10.9958 2.66338 10.8863 2.66702 10.7749L2.71835 9.36616C2.722 9.27424 2.75071 9.18508 2.80138 9.1083C2.85205 9.03153 2.92274 8.97007 3.00581 8.93056L4.38296 8.2691C4.44676 8.03517 4.50249 7.85331 4.55162 7.72058C4.6208 7.54329 4.69763 7.36909 4.78188 7.19845L4.18497 5.93713C4.13967 5.84135 4.12591 5.73366 4.14567 5.62957C4.16544 5.52547 4.21771 5.43032 4.29496 5.35781L5.32453 4.38542C5.3967 4.31735 5.487 4.27158 5.58458 4.25363C5.68215 4.23567 5.78283 4.2463 5.87451 4.28422L7.26633 4.85915C7.42032 4.75648 7.55965 4.67361 7.68578 4.60688C7.83611 4.52695 8.03703 4.44335 8.29002 4.35315L8.77401 3.0031C8.80979 2.9043 8.87519 2.81895 8.96129 2.75871C9.04738 2.69846 9.14998 2.66626 9.25506 2.66651H10.7906ZM10.0177 7.81371C8.79527 7.81371 7.80457 8.7927 7.80457 10.0012C7.80457 11.2097 8.79527 12.1895 10.0177 12.1895C11.2394 12.1895 12.2301 11.2097 12.2301 10.0012C12.2301 8.7927 11.2401 7.81371 10.0177 7.81371Z" fill="#434343" fill-opacity="0.6"/>
  </g>
  <defs>
    <clipPath id="clip0_4_2552">
      <rect width="20" height="20" fill="white"/>
    </clipPath>
  </defs>
</svg>