<svg xmlns="http://www.w3.org/2000/svg" width="296" height="135" viewBox="0 0 296 135" fill="none">
  <g filter="url(#filter0_d_5963_29489)">
    <mask id="path-1-inside-1_5963_29489" fill="white">
      <path fill-rule="evenodd" clip-rule="evenodd" d="M64 16C61.2386 16 59 18.2386 59 21V26.2265L50.5 31.134C49.8333 31.5189 49.8333 32.4811 50.5 32.866L59 37.7735V60C59 62.7614 61.2386 65 64 65H241C243.761 65 246 62.7614 246 60V21C246 18.2386 243.761 16 241 16H64Z"/>
    </mask>
    <path fill-rule="evenodd" clip-rule="evenodd" d="M64 16C61.2386 16 59 18.2386 59 21V26.2265L50.5 31.134C49.8333 31.5189 49.8333 32.4811 50.5 32.866L59 37.7735V60C59 62.7614 61.2386 65 64 65H241C243.761 65 246 62.7614 246 60V21C246 18.2386 243.761 16 241 16H64Z" fill="white"/>
    <path d="M59 26.2265L59.5 27.0925L60 26.8038V26.2265H59ZM50.5 31.134L51 32L50.5 31.134ZM50.5 32.866L50 33.732L50 33.7321L50.5 32.866ZM59 37.7735H60V37.1962L59.5 36.9075L59 37.7735ZM60 21C60 18.7909 61.7909 17 64 17V15C60.6863 15 58 17.6863 58 21H60ZM60 26.2265V21H58V26.2265H60ZM58.5 25.3605L50 30.2679L51 32L59.5 27.0925L58.5 25.3605ZM50 30.2679C48.6667 31.0377 48.6667 32.9622 50 33.732L51 32L51 32L50 30.2679ZM50 33.7321L58.5 38.6395L59.5 36.9075L51 32L50 33.7321ZM60 60V37.7735H58V60H60ZM64 64C61.7909 64 60 62.2091 60 60H58C58 63.3137 60.6863 66 64 66V64ZM241 64H64V66H241V64ZM245 60C245 62.2091 243.209 64 241 64V66C244.314 66 247 63.3137 247 60H245ZM245 21V60H247V21H245ZM241 17C243.209 17 245 18.7909 245 21H247C247 17.6863 244.314 15 241 15V17ZM64 17H241V15H64V17Z" fill="url(#paint0_linear_5963_29489)" fill-opacity="0.25" mask="url(#path-1-inside-1_5963_29489)"/>
  </g>
  <defs>
    <filter id="filter0_d_5963_29489" x="0" y="-14" width="296" height="149" filterUnits="userSpaceOnUse" color-interpolation-filters="sRGB">
      <feFlood flood-opacity="0" result="BackgroundImageFix"/>
      <feColorMatrix in="SourceAlpha" type="matrix" values="0 0 0 0 0 0 0 0 0 0 0 0 0 0 0 0 0 0 127 0" result="hardAlpha"/>
      <feOffset dy="20"/>
      <feGaussianBlur stdDeviation="25"/>
      <feComposite in2="hardAlpha" operator="out"/>
      <feColorMatrix type="matrix" values="0 0 0 0 0.875 0 0 0 0 0.875 0 0 0 0 0.875 0 0 0 0.4 0"/>
      <feBlend mode="normal" in2="BackgroundImageFix" result="effect1_dropShadow_5963_29489"/>
      <feBlend mode="normal" in="SourceGraphic" in2="effect1_dropShadow_5963_29489" result="shape"/>
    </filter>
    <linearGradient id="paint0_linear_5963_29489" x1="54.1925" y1="40" x2="246" y2="40" gradientUnits="userSpaceOnUse">
      <stop stop-color="#A8A8A8"/>
      <stop offset="1" stop-color="#A8A8A8" stop-opacity="0.25"/>
    </linearGradient>
  </defs>
</svg>