<svg xmlns="http://www.w3.org/2000/svg" width="20" height="24" viewBox="0 0 20 24" fill="none">
  <path d="M10.0014 24C9.93684 24 9.87531 23.9905 9.81378 23.9684C7.67874 23.2634 5.85134 22.1949 4.38696 20.7945C3.21176 19.6691 2.2673 18.3288 1.58125 16.8114C0.415284 14.2287 0.399902 12.0348 0.399902 11.9431V0.632244C0.399902 0.28451 0.676781 0 1.01519 0H18.9846C19.323 0 19.5999 0.28451 19.5999 0.632244V11.9463C19.5999 12.0379 19.5876 14.2318 18.4186 16.8145C17.7325 18.3319 16.788 19.6723 15.6128 20.7977C14.1485 22.1981 12.3241 23.2666 10.186 23.9716C10.1307 23.9905 10.066 24 10.0014 24ZM1.63355 1.26449V11.9463C1.63355 11.9652 1.65201 13.9947 2.72261 16.3309C3.34405 17.6902 4.19622 18.8915 5.25451 19.8967C6.53738 21.117 8.13405 22.0622 10.0045 22.7039C11.8873 22.0558 13.4901 21.1043 14.7791 19.8714C15.8374 18.8567 16.6896 17.6491 17.308 16.2803C18.3601 13.9473 18.3724 11.9652 18.3724 11.9463V1.26449H1.63355Z" fill="#E57C90"/>
  <path d="M14.7061 11.9531V18.3894C17.3764 15.481 17.3764 11.9531 17.3764 11.9531H14.7061Z" fill="#E57C90"/>
  <path d="M5.32142 18.4178V11.9531H2.62646C2.62646 11.9531 2.62647 15.5032 5.32142 18.4178Z" fill="#E57C90"/>
  <path d="M8.45996 20.7097C8.93373 20.9373 9.4475 21.146 10.0013 21.3293C10.5642 21.1428 11.0872 20.931 11.5672 20.6971V11.9531H8.45996V20.7097Z" fill="#E57C90"/>
</svg>