<svg xmlns="http://www.w3.org/2000/svg" width="20" height="24" viewBox="0 0 20 24" fill="none">
  <path d="M10.0019 24C9.93732 24 9.8758 23.9905 9.81427 23.9684C7.67922 23.2634 5.85183 22.1949 4.38744 20.7945C3.21225 19.6691 2.26778 18.3288 1.58174 16.8114C0.415773 14.2287 0.400391 12.0348 0.400391 11.9431V0.632244C0.400391 0.28451 0.677269 0 1.01568 0H18.9851C19.3235 0 19.6004 0.28451 19.6004 0.632244V11.9463C19.6004 12.0379 19.5881 14.2318 18.419 16.8145C17.733 18.3319 16.7885 19.6723 15.6133 20.7977C14.149 22.1981 12.3246 23.2666 10.1865 23.9716C10.1311 23.9905 10.0665 24 10.0019 24ZM1.63404 1.26449V11.9463C1.63404 11.9652 1.6525 13.9947 2.7231 16.3309C3.34453 17.6902 4.19671 18.8915 5.255 19.8967C6.53787 21.117 8.13454 22.0622 10.005 22.7039C11.8878 22.0558 13.4906 21.1043 14.7796 19.8714C15.8379 18.8567 16.6901 17.6491 17.3085 16.2803C18.3606 13.9473 18.3729 11.9652 18.3729 11.9463V1.26449H1.63404Z" fill="#E57C90"/>
</svg>