<svg xmlns="http://www.w3.org/2000/svg" width="20" height="24" viewBox="0 0 20 24" fill="none">
  <path d="M10.0014 24C9.93684 24 9.87531 23.9905 9.81378 23.9684C7.67874 23.2634 5.85134 22.1949 4.38696 20.7945C3.21176 19.6691 2.2673 18.3288 1.58125 16.8114C0.415285 14.2287 0.399902 12.0348 0.399902 11.9431V0.632244C0.399902 0.28451 0.676781 0 1.01519 0H18.9846C19.323 0 19.5999 0.28451 19.5999 0.632244V11.9463C19.5999 12.0379 19.5876 14.2318 18.4186 16.8145C17.7325 18.3319 16.788 19.6723 15.6129 20.7977C14.1485 22.1981 12.3241 23.2666 10.186 23.9716C10.1276 23.9905 10.066 24 10.0014 24ZM1.63047 1.26449V11.9463C1.63047 11.9652 1.64893 13.9916 2.71953 16.3309C3.34097 17.6902 4.19314 18.8915 5.25143 19.8967C6.5343 21.117 8.13097 22.0622 10.0014 22.7039C11.8719 22.0622 13.4686 21.117 14.7515 19.8967C15.8097 18.8883 16.6619 17.6902 17.2834 16.3309C18.3509 13.9947 18.3724 11.9652 18.3724 11.9463V1.26449H1.63047Z" fill="#E57C90"/>
  <path d="M10.0007 2.33691H2.62646V11.9565C2.62646 11.9565 2.62647 18.9017 10.0007 21.3327C17.3749 18.9017 17.3749 11.9565 17.3749 11.9565V2.33691H10.0007Z" fill="#E57C90"/>
</svg>