<svg xmlns="http://www.w3.org/2000/svg" width="20" height="20" viewBox="0 0 20 20" fill="none">
  <path d="M4.69984 14.1665L4.10817 14.7582C3.95296 14.9143 3.86584 15.1255 3.86584 15.3457C3.86584 15.5658 3.95296 15.777 4.10817 15.9332C4.26431 16.0884 4.47552 16.1755 4.69567 16.1755C4.91583 16.1755 5.12704 16.0884 5.28317 15.9332L5.87484 15.3415C6.01136 15.1821 6.0827 14.977 6.0746 14.7673C6.0665 14.5576 5.97955 14.3586 5.83114 14.2102C5.68273 14.0618 5.48378 13.9748 5.27405 13.9667C5.06432 13.9586 4.85926 14.03 4.69984 14.1665ZM4.1665 9.99984C4.1665 9.77882 4.07871 9.56686 3.92243 9.41058C3.76615 9.2543 3.55418 9.1665 3.33317 9.1665H2.49984C2.27882 9.1665 2.06686 9.2543 1.91058 9.41058C1.7543 9.56686 1.6665 9.77882 1.6665 9.99984C1.6665 10.2209 1.7543 10.4328 1.91058 10.5891C2.06686 10.7454 2.27882 10.8332 2.49984 10.8332H3.33317C3.55418 10.8332 3.76615 10.7454 3.92243 10.5891C4.07871 10.4328 4.1665 10.2209 4.1665 9.99984ZM9.99984 4.1665C10.2209 4.1665 10.4328 4.07871 10.5891 3.92243C10.7454 3.76615 10.8332 3.55418 10.8332 3.33317V2.49984C10.8332 2.27882 10.7454 2.06686 10.5891 1.91058C10.4328 1.7543 10.2209 1.6665 9.99984 1.6665C9.77882 1.6665 9.56686 1.7543 9.41058 1.91058C9.2543 2.06686 9.1665 2.27882 9.1665 2.49984V3.33317C9.1665 3.55418 9.2543 3.76615 9.41058 3.92243C9.56686 4.07871 9.77882 4.1665 9.99984 4.1665ZM4.69984 5.87484C4.85505 6.02879 5.06455 6.11558 5.28317 6.1165C5.39284 6.11714 5.50156 6.09612 5.60309 6.05465C5.70462 6.01318 5.79697 5.95207 5.87484 5.87484C6.03005 5.7187 6.11716 5.50749 6.11716 5.28734C6.11716 5.06718 6.03005 4.85597 5.87484 4.69984L5.28317 4.10817C5.12375 3.97165 4.91869 3.90031 4.70896 3.90841C4.49923 3.91651 4.30028 4.00346 4.15187 4.15187C4.00346 4.30028 3.91651 4.49923 3.90841 4.70896C3.90031 4.91869 3.97165 5.12375 4.10817 5.28317L4.69984 5.87484ZM14.6998 6.1165C14.9185 6.11558 15.128 6.02879 15.2832 5.87484L15.8748 5.28317C15.9621 5.20846 16.0329 5.11653 16.0829 5.01315C16.133 4.90976 16.1611 4.79715 16.1655 4.68238C16.1699 4.56762 16.1506 4.45317 16.1087 4.34624C16.0668 4.2393 16.0033 4.14217 15.922 4.06096C15.8408 3.97975 15.7437 3.9162 15.6368 3.87431C15.5298 3.83241 15.4154 3.81307 15.3006 3.81751C15.1859 3.82194 15.0732 3.85005 14.9699 3.90007C14.8665 3.95009 14.7745 4.02094 14.6998 4.10817L14.1665 4.69984C14.0113 4.85597 13.9242 5.06718 13.9242 5.28734C13.9242 5.50749 14.0113 5.7187 14.1665 5.87484C14.3134 6.02097 14.5095 6.10713 14.7165 6.1165H14.6998ZM17.4998 9.1665H16.6665C16.4455 9.1665 16.2335 9.2543 16.0772 9.41058C15.921 9.56686 15.8332 9.77882 15.8332 9.99984C15.8332 10.2209 15.921 10.4328 16.0772 10.5891C16.2335 10.7454 16.4455 10.8332 16.6665 10.8332H17.4998C17.7209 10.8332 17.9328 10.7454 18.0891 10.5891C18.2454 10.4328 18.3332 10.2209 18.3332 9.99984C18.3332 9.77882 18.2454 9.56686 18.0891 9.41058C17.9328 9.2543 17.7209 9.1665 17.4998 9.1665ZM9.99984 15.8332C9.77882 15.8332 9.56686 15.921 9.41058 16.0772C9.2543 16.2335 9.1665 16.4455 9.1665 16.6665V17.4998C9.1665 17.7209 9.2543 17.9328 9.41058 18.0891C9.56686 18.2454 9.77882 18.3332 9.99984 18.3332C10.2209 18.3332 10.4328 18.2454 10.5891 18.0891C10.7454 17.9328 10.8332 17.7209 10.8332 17.4998V16.6665C10.8332 16.4455 10.7454 16.2335 10.5891 16.0772C10.4328 15.921 10.2209 15.8332 9.99984 15.8332ZM15.2998 14.1665C15.1415 14.0784 14.9588 14.0444 14.7794 14.0695C14.6 14.0945 14.4336 14.1774 14.3055 14.3055C14.1774 14.4336 14.0945 14.6 14.0695 14.7794C14.0444 14.9588 14.0784 15.1415 14.1665 15.2998L14.7582 15.8915C14.9143 16.0467 15.1255 16.1338 15.3457 16.1338C15.5658 16.1338 15.777 16.0467 15.9332 15.8915C16.0884 15.7354 16.1755 15.5242 16.1755 15.304C16.1755 15.0838 16.0884 14.8726 15.9332 14.7165L15.2998 14.1665ZM9.99984 5.4165C9.09334 5.4165 8.2072 5.68531 7.45347 6.18893C6.69975 6.69256 6.11229 7.40838 5.76539 8.24587C5.41849 9.08337 5.32772 10.0049 5.50457 10.894C5.68142 11.7831 6.11794 12.5998 6.75893 13.2407C7.39992 13.8817 8.21659 14.3183 9.10567 14.4951C9.99475 14.672 10.9163 14.5812 11.7538 14.2343C12.5913 13.8874 13.3071 13.2999 13.8107 12.5462C14.3144 11.7925 14.5832 10.9063 14.5832 9.99984C14.581 8.78494 14.0974 7.62043 13.2383 6.76136C12.3792 5.9023 11.2147 5.41871 9.99984 5.4165ZM9.99984 12.9165C9.42298 12.9165 8.85907 12.7454 8.37942 12.425C7.89978 12.1045 7.52594 11.6489 7.30519 11.116C7.08443 10.583 7.02667 9.9966 7.13921 9.43082C7.25175 8.86505 7.52954 8.34535 7.93744 7.93744C8.34535 7.52954 8.86505 7.25175 9.43082 7.13921C9.9966 7.02667 10.583 7.08443 11.116 7.30519C11.6489 7.52594 12.1045 7.89978 12.425 8.37942C12.7454 8.85907 12.9165 9.42298 12.9165 9.99984C12.9165 10.7734 12.6092 11.5153 12.0622 12.0622C11.5153 12.6092 10.7734 12.9165 9.99984 12.9165Z" fill="#141414" fill-opacity="0.8"/>
</svg>