<svg width="20" height="25" viewBox="0 0 20 25" fill="none" xmlns="http://www.w3.org/2000/svg">
<g id="Group 51166">
<path id="Vector" d="M10.0014 24.5C9.93684 24.5 9.87531 24.4905 9.81378 24.4684C7.67874 23.7634 5.85134 22.6949 4.38696 21.2945C3.21176 20.1691 2.2673 18.8288 1.58125 17.3114C0.415285 14.7287 0.399902 12.5348 0.399902 12.4431V1.13224C0.399902 0.78451 0.676781 0.5 1.01519 0.5H18.9846C19.323 0.5 19.5999 0.78451 19.5999 1.13224V12.4463C19.5999 12.5379 19.5876 14.7318 18.4186 17.3145C17.7325 18.8319 16.788 20.1723 15.6129 21.2977C14.1485 22.6981 12.3241 23.7666 10.186 24.4716C10.1276 24.4905 10.066 24.5 10.0014 24.5ZM1.63047 1.76449V12.4463C1.63047 12.4652 1.64893 14.4916 2.71953 16.8309C3.34097 18.1902 4.19314 19.3915 5.25143 20.3967C6.5343 21.617 8.13097 22.5622 10.0014 23.2039C11.8719 22.5622 13.4686 21.617 14.7515 20.3967C15.8097 19.3883 16.6619 18.1902 17.2834 16.8309C18.3509 14.4947 18.3724 12.4652 18.3724 12.4463V1.76449H1.63047Z" fill="white"/>
<path id="Vector_2" d="M10.0007 2.83691H2.62646V12.4565C2.62646 12.4565 2.62647 19.4017 10.0007 21.8327C17.3749 19.4017 17.3749 12.4565 17.3749 12.4565V2.83691H10.0007Z" fill="white"/>
</g>
</svg>
