<svg xmlns="http://www.w3.org/2000/svg" width="20" height="20" viewBox="0 0 20 20" fill="none">
  <path d="M16.2248 8.78312C15.8299 7.90458 15.1896 7.1588 14.381 6.63547C13.5723 6.11214 12.6297 5.83352 11.6665 5.83312C11.2758 5.83627 10.8868 5.88664 10.5082 5.98312C10.0338 5.31357 9.37237 4.79898 8.60673 4.50388C7.84109 4.20878 7.00536 4.14632 6.20436 4.32432C5.40336 4.50232 4.67275 4.91286 4.10415 5.50446C3.53555 6.09605 3.15429 6.84236 3.00817 7.64978C2.46295 7.84607 2.00285 8.22566 1.70654 8.72364C1.41023 9.22163 1.29612 9.80709 1.38371 10.3799C1.47131 10.9527 1.75517 11.4773 2.18677 11.864C2.61836 12.2507 3.17087 12.4754 3.74984 12.4998H4.58317C4.57448 12.6385 4.57448 12.7777 4.58317 12.9164C4.58317 13.69 4.89046 14.4319 5.43744 14.9788C5.98442 15.5258 6.72629 15.8331 7.49984 15.8331H15.1415C16.0034 15.833 16.8368 15.5243 17.4908 14.963C18.1449 14.4016 18.5764 13.6247 18.7073 12.7728C18.8382 11.9209 18.6599 11.0503 18.2045 10.3185C17.7492 9.58668 17.0469 9.04204 16.2248 8.78312ZM3.74984 10.8331C3.52882 10.8331 3.31686 10.7453 3.16058 10.589C3.0043 10.4328 2.9165 10.2208 2.9165 9.99978C2.9165 9.77877 3.0043 9.56681 3.16058 9.41053C3.31686 9.25425 3.52882 9.16645 3.74984 9.16645C3.97085 9.16645 4.18281 9.07865 4.33909 8.92237C4.49537 8.76609 4.58317 8.55413 4.58317 8.33312C4.58317 7.67008 4.84656 7.03419 5.3154 6.56535C5.78424 6.09651 6.42013 5.83312 7.08317 5.83312C7.43265 5.83499 7.77786 5.91012 8.09651 6.05366C8.41516 6.1972 8.70018 6.40595 8.93317 6.66645C8.34177 7.05125 7.83851 7.55685 7.45646 8.15003C7.07442 8.7432 6.82224 9.41052 6.7165 10.1081C6.24548 10.2408 5.81554 10.4901 5.4665 10.8331H3.74984ZM15.1415 14.1664H7.49984C7.16832 14.1664 6.85037 14.0348 6.61595 13.8003C6.38153 13.5659 6.24984 13.248 6.24984 12.9164C6.24984 12.5849 6.38153 12.267 6.61595 12.0326C6.85037 11.7981 7.16832 11.6665 7.49984 11.6665C7.72085 11.6665 7.93281 11.5787 8.08909 11.4224C8.24537 11.2661 8.33317 11.0541 8.33317 10.8331C8.33674 10.0462 8.61861 9.28591 9.12887 8.68684C9.63913 8.08777 10.3449 7.68854 11.1212 7.55982C11.8975 7.43109 12.6944 7.58118 13.3707 7.98351C14.047 8.38584 14.5591 9.01446 14.8165 9.75812C14.8641 9.90132 14.9498 10.0289 15.0642 10.1272C15.1787 10.2256 15.3178 10.291 15.4665 10.3165C15.9395 10.4049 16.3628 10.6658 16.6544 11.0486C16.9459 11.4314 17.0849 11.9089 17.0444 12.3884C17.004 12.8679 16.7869 13.3152 16.4353 13.6438C16.0837 13.9723 15.6226 14.1586 15.1415 14.1664Z" fill="#141414" fill-opacity="0.8"/>
</svg>