<svg xmlns="http://www.w3.org/2000/svg" width="8" height="10" viewBox="0 0 8 10" fill="none">
  <path d="M4.00064 10C3.97372 10 3.94809 9.99605 3.92245 9.98683C3.03285 9.6931 2.27143 9.24789 1.66127 8.66438C1.17161 8.19547 0.77808 7.63699 0.492229 7.00474C0.00640913 5.92861 0 5.01449 0 4.97629V0.263435C0 0.118546 0.115366 0 0.256369 0H7.74363C7.88463 0 8 0.118546 8 0.263435V4.97761C8 5.01581 7.99487 5.92993 7.50777 7.00606C7.22192 7.6383 6.82839 8.19679 6.33873 8.6657C5.72857 9.24921 4.96843 9.69442 4.07755 9.98815C4.05448 9.99605 4.02756 10 4.00064 10ZM0.51402 0.52687V4.97761C0.51402 4.98551 0.521711 5.83114 0.967794 6.80453C1.22673 7.37092 1.5818 7.87144 2.02275 8.29031C2.55728 8.79874 3.22256 9.19257 4.00192 9.45996C4.78641 9.18994 5.45425 8.79347 5.99135 8.27977C6.4323 7.85695 6.78737 7.35379 7.04502 6.78346C7.48342 5.81138 7.48854 4.98551 7.48854 4.97761V0.52687H0.51402Z" fill="#B9B9B9"/>
  <path d="M5.96094 4.98047V7.66224C7.07358 6.45044 7.07358 4.98047 7.07358 4.98047H5.96094Z" fill="#B9B9B9"/>
  <path d="M2.05063 7.67409V4.98047H0.927734C0.927734 4.98047 0.927734 6.45966 2.05063 7.67409Z" fill="#B9B9B9"/>
  <path d="M3.3584 8.62905C3.5558 8.72388 3.76987 8.81082 4.0006 8.88721C4.23518 8.8095 4.45309 8.72125 4.65306 8.62378V4.98047H3.3584V8.62905Z" fill="#B9B9B9"/>
</svg>