<svg xmlns="http://www.w3.org/2000/svg" width="21" height="24" viewBox="0 0 21 24" fill="none">
  <path d="M10.5014 24C10.4368 24 10.3753 23.9905 10.3138 23.9684C8.17874 23.2634 6.35134 22.1949 4.88696 20.7945C3.71176 19.6691 2.7673 18.3288 2.08125 16.8114C0.915285 14.2287 0.899902 12.0348 0.899902 11.9431V0.632244C0.899902 0.28451 1.17678 0 1.51519 0H19.4846C19.823 0 20.0999 0.28451 20.0999 0.632244V11.9463C20.0999 12.0379 20.0876 14.2318 18.9186 16.8145C18.2325 18.3319 17.288 19.6723 16.1129 20.7977C14.6485 22.1981 12.8241 23.2666 10.686 23.9716C10.6276 23.9905 10.566 24 10.5014 24ZM2.13047 1.26449V11.9463C2.13047 11.9652 2.14893 13.9947 3.21953 16.3309C3.84097 17.6902 4.69314 18.8915 5.75143 19.8967C7.0343 21.117 8.63097 22.0622 10.5014 22.7039C12.3719 22.0622 13.9686 21.117 15.2515 19.8967C16.3097 18.8883 17.1619 17.6902 17.7834 16.3309C18.8509 13.9947 18.8724 11.9652 18.8724 11.9463V1.26449H2.13047Z" fill="#E57C90"/>
  <path d="M10.5007 21.3292C13.0726 20.482 14.7462 19.0848 15.8383 17.6274H5.16309C6.25522 19.0879 7.9288 20.482 10.5007 21.3292Z" fill="#E57C90"/>
  <path d="M13.1624 8.0001H17.8754V2.33203L13.1624 8.0001Z" fill="#E57C90"/>
  <path d="M7.8374 14.4036H17.4513C17.8758 12.9905 17.8758 11.9536 17.8758 11.9536V11.2266H10.4801L7.8374 14.4036Z" fill="#E57C90"/>
</svg>