<svg xmlns="http://www.w3.org/2000/svg" width="20" height="20" viewBox="0 0 20 20" fill="none">
  <path d="M14.7165 6.95C14.9351 6.94908 15.1446 6.86229 15.2998 6.70833L15.8915 6.11667C15.9787 6.04196 16.0496 5.95003 16.0996 5.84664C16.1496 5.74325 16.1777 5.63064 16.1822 5.51588C16.1866 5.40111 16.1673 5.28667 16.1254 5.17973C16.0835 5.07279 16.0199 4.97567 15.9387 4.89446C15.8575 4.81325 15.7604 4.7497 15.6534 4.7078C15.5465 4.66591 15.4321 4.64657 15.3173 4.651C15.2025 4.65543 15.0899 4.68354 14.9865 4.73356C14.8831 4.78358 14.7912 4.85443 14.7165 4.94167L14.1665 5.53333C14.0113 5.68947 13.9242 5.90068 13.9242 6.12083C13.9242 6.34099 14.0113 6.5522 14.1665 6.70833C14.3134 6.85447 14.5095 6.94063 14.7165 6.95ZM9.99984 5C10.2209 5 10.4328 4.9122 10.5891 4.75592C10.7454 4.59964 10.8332 4.38768 10.8332 4.16667V3.33333C10.8332 3.11232 10.7454 2.90036 10.5891 2.74408C10.4328 2.5878 10.2209 2.5 9.99984 2.5C9.77882 2.5 9.56686 2.5878 9.41058 2.74408C9.2543 2.90036 9.1665 3.11232 9.1665 3.33333V4.16667C9.1665 4.38768 9.2543 4.59964 9.41058 4.75592C9.56686 4.9122 9.77882 5 9.99984 5ZM3.33317 10H2.49984C2.27882 10 2.06686 10.0878 1.91058 10.2441C1.7543 10.4004 1.6665 10.6123 1.6665 10.8333C1.6665 11.0543 1.7543 11.2663 1.91058 11.4226C2.06686 11.5789 2.27882 11.6667 2.49984 11.6667H3.33317C3.55418 11.6667 3.76615 11.5789 3.92243 11.4226C4.07871 11.2663 4.1665 11.0543 4.1665 10.8333C4.1665 10.6123 4.07871 10.4004 3.92243 10.2441C3.76615 10.0878 3.55418 10 3.33317 10ZM4.69984 6.70833C4.85505 6.86229 5.06455 6.94908 5.28317 6.95C5.39284 6.95063 5.50156 6.92961 5.60309 6.88814C5.70462 6.84667 5.79697 6.78557 5.87484 6.70833C6.03005 6.5522 6.11716 6.34099 6.11716 6.12083C6.11716 5.90068 6.03005 5.68947 5.87484 5.53333L5.28317 4.94167C5.12375 4.80514 4.91869 4.73381 4.70896 4.74191C4.49923 4.75001 4.30028 4.83695 4.15187 4.98536C4.00346 5.13378 3.91651 5.33273 3.90841 5.54246C3.90031 5.75219 3.97165 5.95725 4.10817 6.11667L4.69984 6.70833ZM17.4998 10H16.6665C16.4455 10 16.2335 10.0878 16.0772 10.2441C15.921 10.4004 15.8332 10.6123 15.8332 10.8333C15.8332 11.0543 15.921 11.2663 16.0772 11.4226C16.2335 11.5789 16.4455 11.6667 16.6665 11.6667H17.4998C17.7209 11.6667 17.9328 11.5789 18.0891 11.4226C18.2454 11.2663 18.3332 11.0543 18.3332 10.8333C18.3332 10.6123 18.2454 10.4004 18.0891 10.2441C17.9328 10.0878 17.7209 10 17.4998 10ZM9.1665 15.8333H6.6665C6.44549 15.8333 6.23353 15.9211 6.07725 16.0774C5.92097 16.2337 5.83317 16.4457 5.83317 16.6667C5.83317 16.8877 5.92097 17.0996 6.07725 17.2559C6.23353 17.4122 6.44549 17.5 6.6665 17.5H9.1665C9.38752 17.5 9.59948 17.4122 9.75576 17.2559C9.91204 17.0996 9.99984 16.8877 9.99984 16.6667C9.99984 16.4457 9.91204 16.2337 9.75576 16.0774C9.59948 15.9211 9.38752 15.8333 9.1665 15.8333ZM14.9998 12.5H14.2665C14.477 11.9696 14.5844 11.404 14.5832 10.8333C14.5832 9.61776 14.1003 8.45197 13.2407 7.59243C12.3812 6.73289 11.2154 6.25 9.99984 6.25C8.78426 6.25 7.61847 6.73289 6.75893 7.59243C5.89939 8.45197 5.4165 9.61776 5.4165 10.8333C5.41523 11.404 5.52271 11.9696 5.73317 12.5H4.99984C4.77882 12.5 4.56686 12.5878 4.41058 12.7441C4.2543 12.9004 4.1665 13.1123 4.1665 13.3333C4.1665 13.5543 4.2543 13.7663 4.41058 13.9226C4.56686 14.0789 4.77882 14.1667 4.99984 14.1667H14.9998C15.2209 14.1667 15.4328 14.0789 15.5891 13.9226C15.7454 13.7663 15.8332 13.5543 15.8332 13.3333C15.8332 13.1123 15.7454 12.9004 15.5891 12.7441C15.4328 12.5878 15.2209 12.5 14.9998 12.5ZM12.3748 12.5H7.62484C7.27473 12.0146 7.08532 11.4318 7.08317 10.8333C7.08317 10.0598 7.39046 9.31792 7.93744 8.77094C8.48442 8.22396 9.22629 7.91667 9.99984 7.91667C10.7734 7.91667 11.5153 8.22396 12.0622 8.77094C12.6092 9.31792 12.9165 10.0598 12.9165 10.8333C12.9144 11.4318 12.7249 12.0146 12.3748 12.5ZM13.3332 15.8333H12.4998C12.2788 15.8333 12.0669 15.9211 11.9106 16.0774C11.7543 16.2337 11.6665 16.4457 11.6665 16.6667C11.6665 16.8877 11.7543 17.0996 11.9106 17.2559C12.0669 17.4122 12.2788 17.5 12.4998 17.5H13.3332C13.5542 17.5 13.7661 17.4122 13.9224 17.2559C14.0787 17.0996 14.1665 16.8877 14.1665 16.6667C14.1665 16.4457 14.0787 16.2337 13.9224 16.0774C13.7661 15.9211 13.5542 15.8333 13.3332 15.8333Z" fill="#141414" fill-opacity="0.8"/>
</svg>