<svg xmlns="http://www.w3.org/2000/svg" width="20" height="20" viewBox="0 0 20 20" fill="none">
  <path d="M6.66652 10.8333C6.44551 10.8333 6.23355 10.9211 6.07726 11.0774C5.92098 11.2337 5.83319 11.4456 5.83319 11.6667V15.8333C5.83319 16.0543 5.92098 16.2663 6.07726 16.4226C6.23355 16.5789 6.44551 16.6667 6.66652 16.6667C6.88753 16.6667 7.0995 16.5789 7.25578 16.4226C7.41206 16.2663 7.49985 16.0543 7.49985 15.8333V11.6667C7.49985 11.4456 7.41206 11.2337 7.25578 11.0774C7.0995 10.9211 6.88753 10.8333 6.66652 10.8333ZM9.99985 9.16666C9.77884 9.16666 9.56688 9.25446 9.4106 9.41074C9.25432 9.56702 9.16652 9.77898 9.16652 9.99999V17.5C9.16652 17.721 9.25432 17.933 9.4106 18.0893C9.56688 18.2455 9.77884 18.3333 9.99985 18.3333C10.2209 18.3333 10.4328 18.2455 10.5891 18.0893C10.7454 17.933 10.8332 17.721 10.8332 17.5V9.99999C10.8332 9.77898 10.7454 9.56702 10.5891 9.41074C10.4328 9.25446 10.2209 9.16666 9.99985 9.16666ZM15.3499 5.18333C14.8407 4.01333 13.9619 3.04256 12.8482 2.41977C11.7346 1.79697 10.4474 1.55652 9.18399 1.73525C7.92058 1.91398 6.75062 2.50204 5.8534 3.40931C4.95617 4.31657 4.38118 5.49301 4.21652 6.75833C3.48937 6.93413 2.84249 7.34943 2.37996 7.93742C1.91743 8.52541 1.66614 9.25189 1.66652 9.99999C1.66503 10.472 1.76381 10.939 1.95631 11.3699C2.14882 11.8009 2.43066 12.1861 2.78319 12.5C2.86432 12.5779 2.96039 12.6386 3.0656 12.6784C3.17082 12.7182 3.283 12.7363 3.3954 12.7316C3.50779 12.7269 3.61807 12.6995 3.71958 12.651C3.82109 12.6025 3.91173 12.534 3.98605 12.4495C4.06037 12.3651 4.11682 12.2664 4.15199 12.1596C4.18717 12.0527 4.20035 11.9399 4.19074 11.8278C4.18113 11.7157 4.14893 11.6067 4.09607 11.5074C4.04321 11.4081 3.9708 11.3206 3.88319 11.25C3.70844 11.0923 3.56908 10.8994 3.47428 10.6839C3.37948 10.4685 3.3314 10.2354 3.33319 9.99999C3.33319 9.55797 3.50878 9.13404 3.82134 8.82148C4.1339 8.50892 4.55783 8.33333 4.99985 8.33333C5.22087 8.33333 5.43283 8.24553 5.58911 8.08925C5.74539 7.93297 5.83319 7.72101 5.83319 7.49999C5.83532 6.51439 6.18676 5.56146 6.82508 4.81048C7.4634 4.05951 8.34726 3.55912 9.31964 3.39822C10.292 3.23732 11.29 3.42633 12.1362 3.93167C12.9824 4.437 13.622 5.22594 13.9415 6.15833C13.9892 6.30153 14.0748 6.4291 14.1893 6.52744C14.3037 6.62577 14.4428 6.69117 14.5915 6.71666C15.17 6.81644 15.6949 7.1166 16.0743 7.56455C16.4537 8.01249 16.6633 8.57966 16.6665 9.16666C16.6793 9.78023 16.4589 10.3758 16.0499 10.8333C15.9168 10.999 15.8521 11.2092 15.8689 11.421C15.8857 11.6329 15.9828 11.8303 16.1403 11.9729C16.2978 12.1155 16.5038 12.1925 16.7163 12.1883C16.9287 12.184 17.1315 12.0988 17.2832 11.95C17.7422 11.4255 18.0623 10.7942 18.2141 10.1139C18.366 9.43362 18.3448 8.72613 18.1524 8.05619C17.9601 7.38625 17.6027 6.77527 17.1131 6.27919C16.6235 5.78311 16.0172 5.41778 15.3499 5.21666V5.18333ZM13.3332 10.8333C13.1122 10.8333 12.9002 10.9211 12.7439 11.0774C12.5877 11.2337 12.4999 11.4456 12.4999 11.6667V15.8333C12.4999 16.0543 12.5877 16.2663 12.7439 16.4226C12.9002 16.5789 13.1122 16.6667 13.3332 16.6667C13.5542 16.6667 13.7662 16.5789 13.9224 16.4226C14.0787 16.2663 14.1665 16.0543 14.1665 15.8333V11.6667C14.1665 11.4456 14.0787 11.2337 13.9224 11.0774C13.7662 10.9211 13.5542 10.8333 13.3332 10.8333Z" fill="white"/>
</svg>