<svg xmlns="http://www.w3.org/2000/svg" width="8" height="10" viewBox="0 0 8 10" fill="none">
  <path d="M4.00098 0.97168V2.68533L5.98784 0.97168H4.00098Z" fill="#B9B9B9"/>
  <path d="M4.00098 4.43888V6.15121L7.07356 3.50237V1.79004L4.00098 4.43888Z" fill="#B9B9B9"/>
  <path d="M4.00098 8.88709C6.47494 8.07175 6.95691 6.03804 7.05049 5.27539L4.00098 7.90579V8.88709Z" fill="#B9B9B9"/>
  <path d="M4.00064 10C3.97372 10 3.94809 9.99605 3.92245 9.98683C3.03285 9.6931 2.27143 9.24789 1.66127 8.66438C1.17161 8.19547 0.778081 7.63699 0.492229 7.00474C0.00640933 5.92861 0 5.01449 0 4.97629V0.263435C0 0.118546 0.115366 0 0.256369 0H7.74363C7.88463 0 8 0.118546 8 0.263435V4.97761C8 5.01581 7.99487 5.92993 7.50777 7.00606C7.22192 7.6383 6.82839 8.19679 6.33873 8.6657C5.72857 9.24921 4.96843 9.69442 4.07755 9.98815C4.0532 9.99605 4.02756 10 4.00064 10ZM0.512738 0.52687V4.97761C0.512738 4.98551 0.520429 5.83114 0.966512 6.80453C1.22544 7.37092 1.58052 7.87144 2.02147 8.29031C2.556 8.79874 3.22128 9.19257 4.00064 9.45996C4.78513 9.18994 5.45297 8.79347 5.99007 8.27977C6.43102 7.85695 6.78609 7.35379 7.04374 6.78346C7.48213 5.81138 7.48726 4.98551 7.48726 4.97761V0.52687H0.512738Z" fill="#B9B9B9"/>
</svg>