<svg xmlns="http://www.w3.org/2000/svg" width="253" height="149" viewBox="0 0 253 149" fill="none">
  <g filter="url(#filter0_d_5963_29565)">
    <mask id="path-1-inside-1_5963_29565" fill="white">
      <path d="M16 35C16 32.2386 18.2386 30 21 30H198C200.761 30 203 32.2386 203 35V74C203 76.7614 200.761 79 198 79H21C18.2386 79 16 76.7614 16 74V35Z"/>
    </mask>
    <path d="M16 35C16 32.2386 18.2386 30 21 30H198C200.761 30 203 32.2386 203 35V74C203 76.7614 200.761 79 198 79H21C18.2386 79 16 76.7614 16 74V35Z" fill="white"/>
    <path d="M21 31H198V29H21V31ZM202 35V74H204V35H202ZM198 78H21V80H198V78ZM17 74V35H15V74H17ZM21 78C18.7909 78 17 76.2091 17 74H15C15 77.3137 17.6863 80 21 80V78ZM202 74C202 76.2091 200.209 78 198 78V80C201.314 80 204 77.3137 204 74H202ZM198 31C200.209 31 202 32.7909 202 35H204C204 31.6863 201.314 29 198 29V31ZM21 29C17.6863 29 15 31.6863 15 35H17C17 32.7909 18.7909 31 21 31V29Z" fill="url(#paint0_linear_5963_29565)" fill-opacity="0.25" mask="url(#path-1-inside-1_5963_29565)"/>
  </g>
  <defs>
    <filter id="filter0_d_5963_29565" x="-34" y="0" width="287" height="149" filterUnits="userSpaceOnUse" color-interpolation-filters="sRGB">
      <feFlood flood-opacity="0" result="BackgroundImageFix"/>
      <feColorMatrix in="SourceAlpha" type="matrix" values="0 0 0 0 0 0 0 0 0 0 0 0 0 0 0 0 0 0 127 0" result="hardAlpha"/>
      <feOffset dy="20"/>
      <feGaussianBlur stdDeviation="25"/>
      <feComposite in2="hardAlpha" operator="out"/>
      <feColorMatrix type="matrix" values="0 0 0 0 0.875 0 0 0 0 0.875 0 0 0 0 0.875 0 0 0 0.4 0"/>
      <feBlend mode="normal" in2="BackgroundImageFix" result="effect1_dropShadow_5963_29565"/>
      <feBlend mode="normal" in="SourceGraphic" in2="effect1_dropShadow_5963_29565" result="shape"/>
    </filter>
    <linearGradient id="paint0_linear_5963_29565" x1="20" y1="54" x2="203" y2="54" gradientUnits="userSpaceOnUse">
      <stop stop-color="#A8A8A8"/>
      <stop offset="1" stop-color="#A8A8A8" stop-opacity="0.25"/>
    </linearGradient>
  </defs>
</svg>