<?xml version="1.0" encoding="UTF-8"?>
<svg id="Layer_2" data-name="Layer 2" xmlns="http://www.w3.org/2000/svg" xmlns:xlink="http://www.w3.org/1999/xlink" viewBox="0 0 1763.666 382.718">
  <defs>
    <style>
      .cls-1 {
        fill: url(#linear-gradient);
      }

      .cls-1, .cls-2, .cls-3, .cls-4 {
        stroke-width: 0px;
      }

      .cls-5 {
        opacity: .99;
      }

      .cls-2 {
        fill: url(#linear-gradient-2);
      }

      .cls-3 {
        fill: url(#linear-gradient-3);
      }

      .cls-4 {
        fill: #494949;
      }
    </style>
    <linearGradient id="linear-gradient" x1="407.233" y1="228.952" x2="645.248" y2="228.952" gradientTransform="translate(779.135) rotate(-180) scale(1 -1)" gradientUnits="userSpaceOnUse">
      <stop offset="0" stop-color="#dd678c"/>
      <stop offset="1" stop-color="#ffcaa9"/>
    </linearGradient>
    <linearGradient id="linear-gradient-2" x1="420.041" y1="154.832" x2="779.135" y2="154.832" gradientTransform="translate(779.135) rotate(-180) scale(1 -1)" gradientUnits="userSpaceOnUse">
      <stop offset="0" stop-color="#f4ccd7"/>
      <stop offset="1" stop-color="#ffe9e0"/>
    </linearGradient>
    <linearGradient id="linear-gradient-3" x1="658.481" y1="206.785" x2="766.317" y2="206.785" xlink:href="#linear-gradient"/>
  </defs>
  <g id="_레이어_3" data-name="레이어 3">
    <g>
      <path class="cls-4" d="M799.595,192.227c0-10.014,8.12-18.124,18.146-18.124h291.41v15.227c0,10.014-8.12,18.123-18.146,18.123h-291.41v-15.226ZM856.269,316.775v35.339h236.973v11.749c0,10.014-8.119,18.124-18.146,18.124h-254.041v-78.102c0-10.014,8.12-18.124,18.146-18.124h213.358v-24.681h-232.249v-15.227c0-10.014,8.119-18.124,18.146-18.124h249.318v70.839c0,10.014-8.12,18.124-18.146,18.124h-213.358v.083Z"/>
      <path class="cls-4" d="M1727.345,346.137V54.707c0-10.015,8.125-18.126,18.165-18.126h18.156v291.429c0,10.016-8.125,18.127-18.156,18.127h-18.165ZM1595.344,331.652c-55.221,0-94.029-45.688-94.029-143.935s38.89-143.935,94.029-143.935,93.693,45.689,93.693,143.935-38.881,143.935-93.693,143.935ZM1595.344,298.628c32.335,0,57.708-32.28,57.708-110.911s-25.454-110.91-57.708-110.91-58.126,32.611-58.126,110.91,25.037,110.911,58.126,110.911Z"/>
      <path class="cls-4" d="M1034.795,124.295h52.568v14.462c0,10-8.113,18.099-18.129,18.099h-246.945v-14.462c0-9.999,8.113-18.099,18.129-18.099h34.438v-53.799h-50.001v-14.462c0-10,8.113-18.098,18.129-18.098h241.895v14.462c0,10-8.113,18.098-18.129,18.098h-31.872v53.799h-.084ZM910.371,70.496v53.799h88.911v-53.799h-88.911Z"/>
      <path class="cls-4" d="M699.356,207.691h18.513c10.046,0,18.181-8.15,18.181-18.214V36.12h-246.893c-10.045,0-18.181,8.15-18.181,18.213v15.303h228.298v55.721h-210.117c-10.045,0-18.181,8.15-18.181,18.214v14.969h228.298v49.151h.083Z"/>
      <path class="cls-4" d="M762.022,228.347c-.58-3.893-1.243-7.786-1.823-11.761-95.353,15.074-192.447,16.151-288.049,3.147-11.764-1.573-22.865,6.377-24.77,18.056-.58,3.893-1.243,7.785-1.823,11.761,46.973,7.454,94.277,11.43,141.664,12.341v83.245h18.473c10.025,0,18.143-8.117,18.143-18.139v-65.107c39.931-.746,79.862-3.645,119.544-9.028,12.262-1.657,20.629-12.755,18.723-24.517h-.083Z"/>
      <g>
        <path class="cls-4" d="M1428.656,161.975V36.581h-17.82c-10.031,0-18.156,8.111-18.156,18.126v291.429h17.829c10.031,0,18.147-8.111,18.147-18.127v-131.602h43.61v-34.432h-43.61Z"/>
        <path class="cls-4" d="M1359.927,278.96c-53.548,13.468-107.964,15.723-161.814,6.726v-90.603h134.382c10.031,0,18.156-8.111,18.156-18.127V47.837h-170.693c-10.031,0-18.155,8.111-18.155,18.126v14.899h152.952v81.279h-134.051c-10.031,0-18.155,8.111-18.155,18.127v131.406s83.037,25.803,186.785,3.384v.083c12.5-3.303,12.918-12.803,11.756-24.451-.408-3.965-.744-7.847-1.162-11.729Z"/>
      </g>
      <g>
        <g class="cls-5">
          <path class="cls-1" d="M169.119,335.772L358.304,75.186c12.211,5.742,18.452,21.986,9.055,34.929l-190.899,262.947c-13.133,18.09-41.732,9.108-42.165-13.242l-.408-21.047c9.405,9.061,26.076,9.61,35.232-3.001Z"/>
        </g>
        <path class="cls-2" d="M16.892,90.414L329.273.96c21.303-6.1,38.296,18.169,25.278,36.101l-190.899,262.947c-13.133,18.09-41.732,9.108-42.165-13.242l-1.865-96.24c-.183-9.467-6.076-17.882-14.909-21.292L14.915,134.565c-20.854-8.051-19.512-37.997,1.978-44.151Z"/>
        <path class="cls-3" d="M20.382,170.329l89.798,34.668c3.967,1.531,7.333,4.078,9.863,7.27l.611,31.514c-.996-.569-2.04-1.072-3.132-1.494l-89.798-34.668c-16.619-6.416-19.127-26.727-8.59-37.83.412.184.818.374,1.248.54Z"/>
      </g>
    </g>
  </g>
</svg>