<svg width="20" height="20" viewBox="0 0 20 20" fill="none" xmlns="http://www.w3.org/2000/svg">
<path d="M9.99996 9.16667C11.8409 9.16667 13.3333 7.67428 13.3333 5.83333C13.3333 3.99238 11.8409 2.5 9.99996 2.5C8.15901 2.5 6.66663 3.99238 6.66663 5.83333C6.66663 7.67428 8.15901 9.16667 9.99996 9.16667Z" fill="white" stroke="white" stroke-width="1.5" stroke-linecap="round" stroke-linejoin="round"/>
<path d="M16.6667 17.5V15.5555C16.6667 14.5241 16.3155 13.535 15.6904 12.8057C15.0653 12.0763 14.2174 11.6666 13.3334 11.6666H6.66671C5.78265 11.6666 4.93481 12.0763 4.30968 12.8057C3.68456 13.535 3.33337 14.5241 3.33337 15.5555V17.5" fill="white"/>
<path d="M16.6667 17.5V15.5555C16.6667 14.5241 16.3155 13.535 15.6904 12.8057C15.0653 12.0763 14.2174 11.6666 13.3334 11.6666H6.66671C5.78265 11.6666 4.93481 12.0763 4.30968 12.8057C3.68456 13.535 3.33337 14.5241 3.33337 15.5555V17.5H16.6667Z" stroke="white" stroke-width="1.5" stroke-linecap="round" stroke-linejoin="round"/>
</svg>
