<svg width="20" height="20" viewBox="0 0 20 20" fill="none" xmlns="http://www.w3.org/2000/svg">
<g id="u:university">
<path id="Vector" d="M17.5013 8.33325C17.6107 8.33328 17.7191 8.31174 17.8202 8.26987C17.9214 8.22801 18.0132 8.16662 18.0906 8.08924C18.168 8.01185 18.2294 7.91997 18.2713 7.81885C18.3131 7.71774 18.3347 7.60936 18.3346 7.49992V4.99992C18.3347 4.82506 18.2797 4.65463 18.1775 4.51279C18.0752 4.37095 17.9309 4.26491 17.765 4.20972L10.265 1.70972C10.0938 1.65275 9.9088 1.65275 9.73763 1.70972L2.23763 4.20972C2.07171 4.26491 1.92739 4.37095 1.82514 4.51279C1.72289 4.65463 1.6679 4.82506 1.66797 4.99992V7.49992C1.66794 7.60936 1.68948 7.71774 1.73134 7.81885C1.77321 7.91997 1.8346 8.01185 1.91198 8.08924C1.98937 8.16662 2.08125 8.22801 2.18237 8.26987C2.28348 8.31174 2.39186 8.33328 2.5013 8.33325H3.33464V14.3201C2.84858 14.4914 2.42744 14.8088 2.12902 15.2289C1.83061 15.6491 1.66955 16.1513 1.66797 16.6666V18.3333C1.66794 18.4427 1.68948 18.5511 1.73134 18.6522C1.77321 18.7533 1.8346 18.8452 1.91198 18.9226C1.98937 19 2.08125 19.0613 2.18237 19.1032C2.28348 19.1451 2.39186 19.1666 2.5013 19.1666H17.5013C17.6107 19.1666 17.7191 19.1451 17.8202 19.1032C17.9214 19.0613 18.0132 19 18.0906 18.9226C18.168 18.8452 18.2294 18.7533 18.2713 18.6522C18.3131 18.5511 18.3347 18.4427 18.3346 18.3333V16.6666C18.3331 16.1513 18.172 15.6491 17.8736 15.2289C17.5752 14.8088 17.154 14.4914 16.668 14.3201V8.33325H17.5013ZM16.668 17.4999H3.33464V16.6666C3.33486 16.4456 3.42272 16.2338 3.57896 16.0776C3.73519 15.9213 3.94702 15.8335 4.16797 15.8333H15.8346C16.0556 15.8335 16.2674 15.9213 16.4236 16.0776C16.5799 16.2338 16.6677 16.4456 16.668 16.6666V17.4999ZM5.0013 14.1666V8.33325H6.66797V14.1666H5.0013ZM8.33464 14.1666V8.33325H11.668V14.1666H8.33464ZM13.3346 14.1666V8.33325H15.0013V14.1666H13.3346ZM3.33464 6.66658V5.6005L10.0013 3.378L16.668 5.6005V6.66658H3.33464Z" fill="#434343" fill-opacity="0.6"/>
</g>
</svg>
