<svg xmlns="http://www.w3.org/2000/svg"  viewBox="0 0 34 34" fill="none">
<path d="M24.0832 12.9908C23.8178 12.727 23.4588 12.5789 23.0845 12.5789C22.7102 12.5789 22.3512 12.727 22.0857 12.9908L16.9999 18.0058L11.9849 12.9908C11.7195 12.727 11.3604 12.5789 10.9862 12.5789C10.6119 12.5789 10.2528 12.727 9.98741 12.9908C9.85463 13.1225 9.74923 13.2792 9.67731 13.4518C9.60539 13.6245 9.56836 13.8096 9.56836 13.9966C9.56836 14.1837 9.60539 14.3688 9.67731 14.5415C9.74923 14.7141 9.85463 14.8708 9.98741 15.0025L15.9941 21.0091C16.1258 21.1419 16.2825 21.2473 16.4551 21.3192C16.6277 21.3912 16.8129 21.4282 16.9999 21.4282C17.1869 21.4282 17.3721 21.3912 17.5447 21.3192C17.7174 21.2473 17.874 21.1419 18.0057 21.0091L24.0832 15.0025C24.216 14.8708 24.3214 14.7141 24.3933 14.5415C24.4653 14.3688 24.5023 14.1837 24.5023 13.9966C24.5023 13.8096 24.4653 13.6245 24.3933 13.4518C24.3214 13.2792 24.216 13.1225 24.0832 12.9908Z" fill="#DFDFDF"/>
</svg>