
              <svg xmlns="http://www.w3.org/2000/svg" width="14" height="14" viewBox="0 0 14 14" fill="none">
                <g opacity="0.8" clip-path="url(#clip0_1466_5915)">
                  <path
                    d="M13.3269 2.31445V5.78668H9.85034"
                    stroke="#D85888"
                    stroke-linecap="round"
                    stroke-linejoin="round"
                  />
                  <path
                    d="M11.8725 8.68063C11.4959 9.74539 10.7829 10.6591 9.84113 11.2839C8.89933 11.9088 7.77969 12.211 6.65093 12.1451C5.52218 12.0791 4.44546 11.6486 3.58304 10.9183C2.72061 10.188 2.1192 9.19754 1.86943 8.09617C1.61966 6.9948 1.73507 5.84219 2.19826 4.81203C2.66145 3.78187 3.44732 2.92997 4.43747 2.3847C5.42761 1.83943 6.56837 1.63034 7.68785 1.78893C8.80733 1.94752 9.84488 2.4652 10.6441 3.26396L13.3269 5.78711"
                    stroke="#D85888"
                    stroke-linecap="round"
                    stroke-linejoin="round"
                  />
                </g>
                <defs>
                  <clipPath id="clip0_1466_5915">
                    <rect width="13.9064" height="13.8889" fill="white" />
                  </clipPath>
                </defs>
              </svg>