<svg width="160" height="130" viewBox="0 0 160 130" fill="none" xmlns="http://www.w3.org/2000/svg">
<g filter="url(#filter0_d_972_31626)">
<g filter="url(#filter1_b_972_31626)">
<g clip-path="url(#clip0_972_31626)">
<rect width="120" height="62" transform="translate(20 30)" fill="white" fill-opacity="0.8"/>
<path d="M38.2598 44.9121V47.9883H40.0371V49.082H38.2598V52.0488H36.9609V44.9121H38.2598ZM28.6484 47.1543V46.1152H31.6562V44.8027H32.9551V46.1152H35.9492V47.1543H28.6484ZM29.3184 49.8066C29.3115 48.501 30.5146 47.6533 32.2988 47.6602C34.0625 47.6533 35.2656 48.501 35.2656 49.8066C35.2656 51.1123 34.0625 51.9668 32.2988 51.9531C30.5146 51.9668 29.3115 51.1123 29.3184 49.8066ZM30.4258 57.0117V52.5547H31.7109V53.7441H36.9609V52.5547H38.2598V57.0117H30.4258ZM30.5762 49.8066C30.5625 50.5381 31.2598 50.9893 32.2988 50.9961C33.3379 50.9893 34.0352 50.5381 34.0488 49.8066C34.0352 49.0889 33.3379 48.624 32.2988 48.6309C31.2598 48.624 30.5625 49.0889 30.5762 49.8066ZM31.7109 55.9727H36.9609V54.7559H31.7109V55.9727ZM47.2285 45.7188C47.2285 46.1836 47.1807 46.6211 47.0918 47.0449H49.6484V44.9258H50.9473V52.2129H49.6484V50.6816H46.5586V49.6289H49.6484V48.084H46.7637C45.9365 50.0049 44.0498 51.3789 41.4043 52.0898L40.9121 51.0645C43.8242 50.2783 45.5947 48.7197 45.834 46.7715H41.5547V45.7188H47.2285ZM42.6484 53.7715V52.7461H50.9473V57.1348H49.6484V53.7715H42.6484ZM56.5801 47.2637C56.5801 48.6035 57.4346 49.957 59.0273 50.5586L58.3438 51.5566C57.2021 51.1191 56.4023 50.2852 55.9648 49.2803C55.5137 50.415 54.6797 51.3994 53.4902 51.9121L52.7793 50.9004C54.4336 50.1826 55.3223 48.624 55.3223 47.2637V45.6777H56.5801V47.2637ZM55.0352 54.9199C55.0215 53.5254 56.6143 52.6982 59.1777 52.6914C61.7344 52.6982 63.3408 53.5254 63.3477 54.9199C63.3408 56.3145 61.7344 57.1416 59.1777 57.1348C56.6143 57.1416 55.0215 56.3145 55.0352 54.9199ZM56.3203 54.9199C56.3066 55.6992 57.3936 56.1504 59.1777 56.1367C60.9551 56.1504 62.042 55.6992 62.0488 54.9199C62.042 54.1338 60.9551 53.6826 59.1777 53.6895C57.3936 53.6826 56.3066 54.1338 56.3203 54.9199ZM59.4102 52.0762V45.1445H60.6133V48.1113H62.0488V44.9258H63.2793V52.459H62.0488V49.1777H60.6133V52.0762H59.4102ZM75.666 46.1562V47.1953H68.3652V46.1562H71.373V44.8574H72.6719V46.1562H75.666ZM69.0352 49.9707C69.0283 48.6309 70.2451 47.7559 72.0156 47.7422C73.7793 47.7559 74.9824 48.6309 74.9824 49.9707C74.9824 51.3174 73.7793 52.1992 72.0156 52.1992C70.2451 52.1992 69.0283 51.3174 69.0352 49.9707ZM69.8828 54.25V53.1973H77.9766V57.1621H76.6777V54.25H69.8828ZM70.293 49.9707C70.2793 50.7295 70.9766 51.1875 72.0156 51.1875C73.0547 51.1875 73.752 50.7295 73.7656 49.9707C73.752 49.2188 73.0547 48.7471 72.0156 48.7402C70.9766 48.7471 70.2793 49.2188 70.293 49.9707ZM76.6777 52.5684V44.9121H77.9766V48.2344H79.7539V49.3145H77.9766V52.5684H76.6777ZM90.6641 44.9121V52.0488H89.3652V48.9727H87.0684V47.8926H89.3652V44.9121H90.6641ZM80.4648 50.9551C82.3447 50.3125 83.5205 48.6787 83.5137 47.0039V46.7168H80.8613V45.6504H87.4648V46.7168H84.8398V47.0039C84.833 48.5283 85.9404 50.0527 87.793 50.6953L87.123 51.7207C85.749 51.2422 84.7305 50.2578 84.1973 49.041C83.6641 50.3945 82.5908 51.4678 81.1348 51.9805L80.4648 50.9551ZM82.584 57.0117V52.623H90.6641V57.0117H82.584ZM83.8691 55.959H89.3926V53.6484H83.8691V55.959ZM107.139 50.5859V51.6387H102.189V52.8145C104.432 52.9375 105.765 53.6895 105.771 54.9746C105.765 56.3623 104.179 57.1416 101.547 57.1348C98.8809 57.1416 97.2949 56.3623 97.2949 54.9746C97.2949 53.6895 98.6279 52.9307 100.904 52.8145V51.6387H95.9688V50.5859H107.139ZM96.5566 48.918C98.7578 48.6924 100.494 47.6943 100.672 46.5117H96.9941V45.4727H106.141V46.5117H102.422C102.6 47.7012 104.322 48.6924 106.564 48.918L106.1 49.9434C103.974 49.6973 102.217 48.8018 101.554 47.5029C100.877 48.8018 99.1338 49.6973 97.0078 49.9434L96.5566 48.918ZM98.6074 54.9746C98.6006 55.7197 99.6738 56.1504 101.547 56.1367C103.393 56.1504 104.473 55.7197 104.473 54.9746C104.473 54.2158 103.393 53.8057 101.547 53.7988C99.6738 53.8057 98.6006 54.2158 98.6074 54.9746ZM112.088 45.4727C113.934 45.4658 115.267 46.498 115.273 48.0156C115.267 49.5195 113.934 50.5586 112.088 50.5449C110.249 50.5586 108.923 49.5195 108.93 48.0156C108.923 46.498 110.249 45.4658 112.088 45.4727ZM108.055 51.502C110.317 51.502 113.441 51.4541 116.121 51.0508L116.217 52.0215C115.096 52.2334 113.94 52.3633 112.812 52.4385V56.7793H111.514V52.5137C110.324 52.5684 109.203 52.5752 108.232 52.582L108.055 51.502ZM110.188 48.0156C110.174 48.9043 110.974 49.4922 112.088 49.4785C113.229 49.4922 114.029 48.9043 114.029 48.0156C114.029 47.1201 113.229 46.5186 112.088 46.5254C110.974 46.5186 110.174 47.1201 110.188 48.0156ZM116.969 57.1621V44.9258H118.254V57.1621H116.969ZM129.793 44.9121V47.6465H131.57V48.7266H129.793V51.5703H128.494V44.9121H129.793ZM120.168 50.6406C123.142 49.957 124.796 48.4941 125.001 46.6758H120.729V45.6094H126.43C126.437 48.7539 124.304 50.8252 120.646 51.6934L120.168 50.6406ZM121.48 56.9844V52.1855H122.684V53.5664H124.584V52.1855H125.773V56.1162C127.195 55.4873 127.865 54.1953 127.865 53.0605V52.0488H129.109V53.0195C129.109 54.2158 129.772 55.5146 131.201 56.123L130.518 57.1074C129.52 56.6699 128.863 55.8975 128.494 54.9883C128.111 55.8906 127.448 56.6699 126.457 57.1074L125.773 56.1436V56.9844H121.48ZM122.684 55.9727H124.584V54.5508H122.684V55.9727ZM65.3223 75.5V73.1758L71.2988 63.8594H74.9902V73.1367H76.7871V75.5H74.9902V78H72.1973V75.5H65.3223ZM68.291 73.1367H72.2363V67.082H72.0996L68.291 73.0195V73.1367ZM80.127 78.1758C79.209 78.1758 78.4668 77.4434 78.4863 76.5352C78.4668 75.6367 79.209 74.9043 80.127 74.9141C80.9961 74.9043 81.748 75.6367 81.748 76.5352C81.748 77.4434 80.9961 78.1758 80.127 78.1758ZM88.9551 78.1953C85.4102 78.1953 83.2715 75.5586 83.2715 70.9297C83.2715 66.3105 85.4297 63.6641 88.9551 63.6641C92.4805 63.6641 94.6387 66.3105 94.6387 70.9297C94.6387 75.5781 92.4902 78.1953 88.9551 78.1953ZM86.2793 70.9297C86.2598 74.1914 87.3145 75.7734 88.9551 75.7734C90.5957 75.7734 91.6406 74.1914 91.6309 70.9297C91.6406 67.6973 90.5859 66.0762 88.9551 66.0664C87.3242 66.0762 86.2793 67.6973 86.2793 70.9297Z" fill="#141414"/>
</g>
</g>
<g filter="url(#filter2_b_972_31626)">
<path fill-rule="evenodd" clip-rule="evenodd" d="M74.0603 92L74 92.0796L80.0014 100L86.0028 92.0796L85.9424 92H74.0603Z" fill="white" fill-opacity="0.8"/>
</g>
</g>
<defs>
<filter id="filter0_d_972_31626" x="-10" y="0" width="180" height="130" filterUnits="userSpaceOnUse" color-interpolation-filters="sRGB">
<feFlood flood-opacity="0" result="BackgroundImageFix"/>
<feColorMatrix in="SourceAlpha" type="matrix" values="0 0 0 0 0 0 0 0 0 0 0 0 0 0 0 0 0 0 127 0" result="hardAlpha"/>
<feOffset/>
<feGaussianBlur stdDeviation="15"/>
<feComposite in2="hardAlpha" operator="out"/>
<feColorMatrix type="matrix" values="0 0 0 0 0 0 0 0 0 0 0 0 0 0 0 0 0 0 0.1 0"/>
<feBlend mode="normal" in2="BackgroundImageFix" result="effect1_dropShadow_972_31626"/>
<feBlend mode="normal" in="SourceGraphic" in2="effect1_dropShadow_972_31626" result="shape"/>
</filter>
<filter id="filter1_b_972_31626" x="10" y="20" width="140" height="82" filterUnits="userSpaceOnUse" color-interpolation-filters="sRGB">
<feFlood flood-opacity="0" result="BackgroundImageFix"/>
<feGaussianBlur in="BackgroundImageFix" stdDeviation="5"/>
<feComposite in2="SourceAlpha" operator="in" result="effect1_backgroundBlur_972_31626"/>
<feBlend mode="normal" in="SourceGraphic" in2="effect1_backgroundBlur_972_31626" result="shape"/>
</filter>
<filter id="filter2_b_972_31626" x="19.6344" y="37.6344" width="120.734" height="116.731" filterUnits="userSpaceOnUse" color-interpolation-filters="sRGB">
<feFlood flood-opacity="0" result="BackgroundImageFix"/>
<feGaussianBlur in="BackgroundImageFix" stdDeviation="27.1828"/>
<feComposite in2="SourceAlpha" operator="in" result="effect1_backgroundBlur_972_31626"/>
<feBlend mode="normal" in="SourceGraphic" in2="effect1_backgroundBlur_972_31626" result="shape"/>
</filter>
<clipPath id="clip0_972_31626">
<rect x="20" y="30" width="120" height="62" rx="5" fill="white"/>
</clipPath>
</defs>
</svg>
