<svg xmlns="http://www.w3.org/2000/svg" width="16" height="17" viewBox="0 0 16 17" fill="none">
  <path d="M8.63287 2.63379C8.80535 2.63379 8.95964 2.74115 9.01771 2.90189L9.43189 4.04999C9.58031 4.08695 9.70761 4.12391 9.81555 4.16262C9.93347 4.20486 10.0854 4.26881 10.2731 4.35622L11.2376 3.84583C11.3163 3.80412 11.4064 3.78907 11.4944 3.80292C11.5824 3.81678 11.6636 3.8588 11.7257 3.92268L12.574 4.79974C12.6866 4.91648 12.7183 5.0872 12.6549 5.23621L12.2026 6.29631C12.2777 6.43417 12.3375 6.55209 12.3833 6.65065C12.4326 6.75801 12.4936 6.90584 12.5663 7.09651L13.6205 7.54824C13.7789 7.6157 13.8769 7.7741 13.8663 7.94365L13.7889 9.16096C13.7836 9.24005 13.7552 9.31584 13.7073 9.37893C13.6593 9.44203 13.5938 9.48965 13.5191 9.51589L12.5206 9.87082C12.4918 10.0087 12.4619 10.1266 12.4302 10.2263C12.3791 10.3804 12.3208 10.5319 12.2554 10.6804L12.757 11.7892C12.7924 11.8671 12.8019 11.9543 12.7842 12.038C12.7665 12.1217 12.7224 12.1976 12.6584 12.2544L11.7046 13.1062C11.6417 13.1621 11.5633 13.1974 11.4799 13.2075C11.3964 13.2176 11.3119 13.2019 11.2376 13.1626L10.2544 12.6416C10.1005 12.7231 9.94184 12.795 9.77918 12.8569L9.34976 13.0177L8.96844 14.0737C8.94018 14.151 8.88921 14.218 8.8222 14.2658C8.7552 14.3137 8.6753 14.3401 8.59298 14.3418L7.47835 14.367C7.39385 14.3692 7.31074 14.3452 7.24046 14.2982C7.17018 14.2513 7.11618 14.1837 7.08589 14.1047L6.63652 12.9156C6.48319 12.8632 6.33139 12.8065 6.18128 12.7455C6.0585 12.6923 5.93758 12.635 5.81873 12.5736L4.7041 13.0499C4.63066 13.0813 4.54969 13.0906 4.47105 13.0767C4.39241 13.0629 4.3195 13.0264 4.26118 12.9719L3.43636 12.1981C3.37495 12.1407 3.33313 12.0655 3.31681 11.9831C3.30049 11.9007 3.3105 11.8152 3.34543 11.7387L3.82472 10.6945C3.76098 10.5708 3.70188 10.4448 3.64755 10.3167C3.58414 10.1599 3.52545 10.0012 3.47156 9.8409L2.42146 9.52117C2.3361 9.49537 2.26166 9.44211 2.20968 9.36966C2.1577 9.2972 2.1311 9.20961 2.134 9.12048L2.17507 7.99351C2.17799 7.91998 2.20096 7.84865 2.24149 7.78723C2.28203 7.72581 2.33858 7.67664 2.40504 7.64504L3.50676 7.11587C3.5578 6.92872 3.60238 6.78323 3.64169 6.67705C3.69703 6.53522 3.75849 6.39586 3.82589 6.25935L3.34836 5.25029C3.31212 5.17366 3.30112 5.08752 3.31693 5.00424C3.33274 4.92096 3.37456 4.84484 3.43636 4.78683L4.26001 4.00892C4.31775 3.95446 4.38999 3.91785 4.46805 3.90349C4.54611 3.88912 4.62666 3.89762 4.7 3.92796L5.81345 4.3879C5.93665 4.30577 6.04811 4.23948 6.14901 4.18609C6.26928 4.12215 6.43002 4.05527 6.63241 3.98311L7.0196 2.90307C7.04822 2.82403 7.10054 2.75575 7.16942 2.70755C7.2383 2.65936 7.32037 2.6336 7.40444 2.63379H8.63287ZM8.01455 6.75155C7.03661 6.75155 6.24405 7.53474 6.24405 8.50156C6.24405 9.46837 7.03661 10.2522 8.01455 10.2522C8.9919 10.2522 9.78446 9.46837 9.78446 8.50156C9.78446 7.53474 8.99249 6.75155 8.01455 6.75155Z" stroke="black" stroke-width="1.5"/>
</svg>