<svg xmlns="http://www.w3.org/2000/svg" width="16" height="17" viewBox="0 0 16 17" fill="none">
  <path d="M6.00033 7.16683H6.66699C6.8438 7.16683 7.01337 7.09659 7.1384 6.97157C7.26342 6.84654 7.33366 6.67697 7.33366 6.50016C7.33366 6.32335 7.26342 6.15378 7.1384 6.02876C7.01337 5.90373 6.8438 5.8335 6.66699 5.8335H6.00033C5.82351 5.8335 5.65395 5.90373 5.52892 6.02876C5.4039 6.15378 5.33366 6.32335 5.33366 6.50016C5.33366 6.67697 5.4039 6.84654 5.52892 6.97157C5.65395 7.09659 5.82351 7.16683 6.00033 7.16683ZM6.00033 8.50016C5.82351 8.50016 5.65395 8.5704 5.52892 8.69543C5.4039 8.82045 5.33366 8.99002 5.33366 9.16683C5.33366 9.34364 5.4039 9.51321 5.52892 9.63823C5.65395 9.76326 5.82351 9.8335 6.00033 9.8335H10.0003C10.1771 9.8335 10.3467 9.76326 10.4717 9.63823C10.5968 9.51321 10.667 9.34364 10.667 9.16683C10.667 8.99002 10.5968 8.82045 10.4717 8.69543C10.3467 8.5704 10.1771 8.50016 10.0003 8.50016H6.00033ZM13.3337 6.46016C13.3267 6.39892 13.3133 6.33858 13.2937 6.28016V6.22016C13.2616 6.15162 13.2188 6.08861 13.167 6.0335L9.16699 2.0335C9.11188 1.98164 9.04887 1.93888 8.98033 1.90683C8.96043 1.904 8.94023 1.904 8.92033 1.90683C8.8526 1.86799 8.77781 1.84306 8.70033 1.8335H4.66699C4.13656 1.8335 3.62785 2.04421 3.25278 2.41928C2.87771 2.79436 2.66699 3.30306 2.66699 3.8335V13.1668C2.66699 13.6973 2.87771 14.206 3.25278 14.581C3.62785 14.9561 4.13656 15.1668 4.66699 15.1668H11.3337C11.8641 15.1668 12.3728 14.9561 12.7479 14.581C13.1229 14.206 13.3337 13.6973 13.3337 13.1668V6.50016C13.3337 6.50016 13.3337 6.50016 13.3337 6.46016ZM9.33366 4.10683L11.0603 5.8335H10.0003C9.82351 5.8335 9.65395 5.76326 9.52892 5.63823C9.4039 5.51321 9.33366 5.34364 9.33366 5.16683V4.10683ZM12.0003 13.1668C12.0003 13.3436 11.9301 13.5132 11.8051 13.6382C11.68 13.7633 11.5105 13.8335 11.3337 13.8335H4.66699C4.49018 13.8335 4.32061 13.7633 4.19559 13.6382C4.07056 13.5132 4.00033 13.3436 4.00033 13.1668V3.8335C4.00033 3.65669 4.07056 3.48712 4.19559 3.36209C4.32061 3.23707 4.49018 3.16683 4.66699 3.16683H8.00033V5.16683C8.00033 5.69726 8.21104 6.20597 8.58611 6.58104C8.96118 6.95612 9.46989 7.16683 10.0003 7.16683H12.0003V13.1668ZM10.0003 11.1668H6.00033C5.82351 11.1668 5.65395 11.2371 5.52892 11.3621C5.4039 11.4871 5.33366 11.6567 5.33366 11.8335C5.33366 12.0103 5.4039 12.1799 5.52892 12.3049C5.65395 12.4299 5.82351 12.5002 6.00033 12.5002H10.0003C10.1771 12.5002 10.3467 12.4299 10.4717 12.3049C10.5968 12.1799 10.667 12.0103 10.667 11.8335C10.667 11.6567 10.5968 11.4871 10.4717 11.3621C10.3467 11.2371 10.1771 11.1668 10.0003 11.1668Z" fill="black"/>
</svg>