<svg xmlns="http://www.w3.org/2000/svg" width="16" height="17" viewBox="0 0 16 17" fill="none">
  <path fill-rule="evenodd" clip-rule="evenodd" d="M11.2331 4.60053C10.9206 4.28811 10.4141 4.28811 10.1017 4.60053C9.78928 4.91294 9.78928 5.41948 10.1017 5.7319L12.0696 7.6998H6.0002C5.55837 7.6998 5.2002 8.05798 5.2002 8.4998C5.2002 8.94163 5.55837 9.2998 6.0002 9.2998H12.0691L10.1017 11.2672C9.78928 11.5796 9.78928 12.0861 10.1017 12.3986C10.4141 12.711 10.9206 12.711 11.2331 12.3986L14.5664 9.06523C14.8788 8.75281 14.8788 8.24628 14.5664 7.93386L11.2331 4.60053Z" fill="#141414"/>
  <path d="M6 14.5H3.33333C2.97971 14.5 2.64057 14.3595 2.39052 14.1095C2.14048 13.8594 2 13.5203 2 13.1667V3.83333C2 3.47971 2.14048 3.14057 2.39052 2.89052C2.64057 2.64048 2.97971 2.5 3.33333 2.5H6" stroke="#141414" stroke-width="1.6" stroke-linecap="round" stroke-linejoin="round"/>
</svg>