<svg width="22" height="21" viewBox="0 0 22 21" fill="none" xmlns="http://www.w3.org/2000/svg">
<g id="icon_18_small 1" clip-path="url(#clip0_137_1096)">
<g id="Group">
<path id="Vector" d="M10.5908 20.8188C16.1137 20.8188 20.5908 16.3417 20.5908 10.8188C20.5908 5.296 16.1137 0.818848 10.5908 0.818848C5.06797 0.818848 0.59082 5.296 0.59082 10.8188C0.59082 16.3417 5.06797 20.8188 10.5908 20.8188Z" fill="#E57C90"/>
<path id="Vector_2" d="M9.09082 14.3188C8.79082 14.3188 8.59082 14.2188 8.39082 14.0188L5.89082 11.5188C5.49082 11.1188 5.49082 10.5188 5.89082 10.1188C6.29082 9.71885 6.89082 9.71885 7.29082 10.1188L9.09082 11.9188L13.8908 7.11885C14.2908 6.71885 14.8908 6.71885 15.2908 7.11885C15.6908 7.51885 15.6908 8.11885 15.2908 8.51885L9.79082 14.0188C9.59082 14.2188 9.39082 14.3188 9.09082 14.3188Z" fill="white"/>
</g>
</g>
<defs>
<clipPath id="clip0_137_1096">
<rect width="21" height="20" fill="white" transform="translate(0.59082 0.818848)"/>
</clipPath>
</defs>
</svg>
