<svg width="17" height="18" viewBox="0 0 17 18" fill="none" xmlns="http://www.w3.org/2000/svg">
<g id="icon_14_fill 1" clip-path="url(#clip0_137_1063)">
<path id="Vector" d="M16.0127 6.75068C16.1227 6.75068 16.2327 6.73068 16.3327 6.69068C16.4327 6.65068 16.5227 6.59068 16.6027 6.51068C16.6827 6.43068 16.7427 6.34068 16.7827 6.24068C16.8227 6.14068 16.8427 6.03068 16.8427 5.92068V3.42068C16.8427 3.25068 16.7827 3.07068 16.6827 2.93068C16.5827 2.79068 16.4327 2.68068 16.2727 2.63068L8.78274 0.120684C8.61274 0.0606836 8.42274 0.0606836 8.25274 0.120684L0.752739 2.62068C0.582739 2.68068 0.442739 2.78068 0.342739 2.92068C0.232739 3.07068 0.182739 3.24068 0.182739 3.41068V5.91068C0.182739 6.02068 0.202739 6.13068 0.242739 6.23068C0.282739 6.33068 0.342739 6.42068 0.422739 6.50068C0.502739 6.58068 0.592739 6.64068 0.692739 6.68068C0.792739 6.72068 0.902739 6.74068 1.01274 6.74068H1.84274V12.7307C1.35274 12.9007 0.932739 13.2207 0.632739 13.6407C0.342739 14.0607 0.182739 14.5607 0.182739 15.0807V16.7507C0.182739 16.8607 0.202739 16.9707 0.242739 17.0707C0.282739 17.1707 0.342739 17.2607 0.422739 17.3407C0.502739 17.4207 0.592739 17.4807 0.692739 17.5207C0.792739 17.5607 0.902739 17.5807 1.01274 17.5807H16.0127C16.1227 17.5807 16.2327 17.5607 16.3327 17.5207C16.4327 17.4807 16.5227 17.4207 16.6027 17.3407C16.6827 17.2607 16.7427 17.1707 16.7827 17.0707C16.8227 16.9707 16.8427 16.8607 16.8427 16.7507V15.0807C16.8427 14.5607 16.6827 14.0607 16.3827 13.6407C16.0827 13.2207 15.6627 12.9007 15.1727 12.7307V6.74068H16.0027L16.0127 6.75068ZM6.84274 12.5807V6.75068H10.1727V12.5807H6.84274Z" fill="#D85888"/>
</g>
<defs>
<clipPath id="clip0_137_1063">
<rect width="16.67" height="17.5" fill="white" transform="translate(0.182739 0.0805664)"/>
</clipPath>
</defs>
</svg>
