<svg width="60" height="60" viewBox="0 0 60 60" fill="none" xmlns="http://www.w3.org/2000/svg">
<path fill-rule="evenodd" clip-rule="evenodd" d="M38.2071 23.2071C38.5976 22.8166 38.5976 22.1834 38.2071 21.7929C37.8166 21.4024 37.1834 21.4024 36.7929 21.7929L30 28.5858L23.2071 21.7929C22.8166 21.4024 22.1834 21.4024 21.7929 21.7929C21.4024 22.1834 21.4024 22.8166 21.7929 23.2071L28.5858 30L21.7929 36.7929C21.4024 37.1834 21.4024 37.8166 21.7929 38.2071C22.1834 38.5976 22.8166 38.5976 23.2071 38.2071L30 31.4142L36.7929 38.2071C37.1834 38.5976 37.8166 38.5976 38.2071 38.2071C38.5976 37.8166 38.5976 37.1834 38.2071 36.7929L31.4142 30L38.2071 23.2071Z" fill="#434343"/>
</svg>
