<svg width="29" height="28" viewBox="0 0 29 28" fill="none" xmlns="http://www.w3.org/2000/svg">
<g id="icon_12">
<path id="Vector" fill-rule="evenodd" clip-rule="evenodd" d="M14.6826 5.25C12.3522 5.25 10.1172 6.17187 8.4693 7.81282C6.82142 9.45376 5.89565 11.6794 5.89565 14C5.89565 16.3206 6.82142 18.5462 8.4693 20.1872C10.1172 21.8281 12.3522 22.75 14.6826 22.75C17.0131 22.75 19.2481 21.8281 20.896 20.1872C22.5439 18.5462 23.4696 16.3206 23.4696 14C23.4696 11.6794 22.5439 9.45376 20.896 7.81282C19.2481 6.17187 17.0131 5.25 14.6826 5.25ZM2.38086 14C2.38086 7.2345 7.88854 1.75 14.6826 1.75C21.4767 1.75 26.9844 7.2345 26.9844 14C26.9844 20.7655 21.4767 26.25 14.6826 26.25C7.88854 26.25 2.38086 20.7655 2.38086 14Z" fill="#D85888" fill-opacity="0.2"/>
<path id="Vector_2" fill-rule="evenodd" clip-rule="evenodd" d="M14.6818 5.25001C12.4164 5.24494 10.2375 6.11626 8.60477 7.68018C8.2665 7.99163 7.81894 8.15835 7.35845 8.14445C6.89795 8.13055 6.46136 7.93714 6.14265 7.60586C5.82395 7.27458 5.64863 6.83193 5.65444 6.3732C5.66024 5.91447 5.84671 5.47636 6.1737 5.15318C8.46057 2.96505 11.5104 1.74516 14.6818 1.75001C15.1479 1.75001 15.5949 1.93439 15.9245 2.26258C16.2541 2.59077 16.4392 3.03589 16.4392 3.50001C16.4392 3.96414 16.2541 4.40926 15.9245 4.73745C15.5949 5.06564 15.1479 5.25001 14.6818 5.25001Z" fill="#D85888"/>
</g>
</svg>
