<svg width="20" height="20" viewBox="0 0 20 20" fill="none" xmlns="http://www.w3.org/2000/svg">
<g id="fi:user">
<path id="Vector" d="M10.0003 9.16667C11.8413 9.16667 13.3337 7.67428 13.3337 5.83333C13.3337 3.99238 11.8413 2.5 10.0003 2.5C8.15938 2.5 6.66699 3.99238 6.66699 5.83333C6.66699 7.67428 8.15938 9.16667 10.0003 9.16667Z" fill="#D85888" stroke="#D85888" stroke-width="2" stroke-linecap="round" stroke-linejoin="round"/>
<g id="&#235;&#170;&#184;&#237;&#134;&#181;">
<g id="Vector_2">
<path d="M16.6663 17.4998V15.5554C16.6663 14.524 16.3152 13.5348 15.69 12.8055C15.0649 12.0762 14.2171 11.6665 13.333 11.6665H6.66634C5.78229 11.6665 4.93444 12.0762 4.30932 12.8055C3.6842 13.5348 3.33301 14.524 3.33301 15.5554V17.4998" fill="#D85888"/>
<path d="M16.6663 17.4998V15.5554C16.6663 14.524 16.3152 13.5348 15.69 12.8055C15.0649 12.0762 14.2171 11.6665 13.333 11.6665H6.66634C5.78229 11.6665 4.93444 12.0762 4.30932 12.8055C3.6842 13.5348 3.33301 14.524 3.33301 15.5554V17.4998H16.6663Z" stroke="#D85888" stroke-width="2" stroke-linecap="round" stroke-linejoin="round"/>
</g>
</g>
</g>
</svg>
