<svg xmlns="http://www.w3.org/2000/svg" width="14" height="14" viewBox="0 0 14 14" fill="none">
  <path fill-rule="evenodd" clip-rule="evenodd" d="M3.5 8.45801C3.98325 8.45801 4.375 8.84976 4.375 9.33301V11.6663C4.375 12.1496 3.98325 12.5413 3.5 12.5413C3.01675 12.5413 2.625 12.1496 2.625 11.6663V9.33301C2.625 8.84976 3.01675 8.45801 3.5 8.45801Z" fill="#D85888"/>
  <path fill-rule="evenodd" clip-rule="evenodd" d="M7 4.95801C7.48325 4.95801 7.875 5.34976 7.875 5.83301V11.6663C7.875 12.1496 7.48325 12.5413 7 12.5413C6.51675 12.5413 6.125 12.1496 6.125 11.6663V5.83301C6.125 5.34976 6.51675 4.95801 7 4.95801Z" fill="#D85888"/>
  <path fill-rule="evenodd" clip-rule="evenodd" d="M10.5 1.45801C10.9832 1.45801 11.375 1.84976 11.375 2.33301V11.6663C11.375 12.1496 10.9832 12.5413 10.5 12.5413C10.0168 12.5413 9.625 12.1496 9.625 11.6663V2.33301C9.625 1.84976 10.0168 1.45801 10.5 1.45801Z" fill="#D85888"/>
</svg>