<svg width="24" height="24" viewBox="0 0 24 24" fill="none" xmlns="http://www.w3.org/2000/svg">
<path fill-rule="evenodd" clip-rule="evenodd" d="M2.2002 10.8002C2.2002 6.05055 6.05055 2.2002 10.8002 2.2002C15.5498 2.2002 19.4002 6.05055 19.4002 10.8002C19.4002 13.1239 18.4786 15.2323 16.9811 16.7799C16.9437 16.808 16.9079 16.839 16.8739 16.873C16.8399 16.907 16.8089 16.9428 16.7808 16.9802C15.2331 18.4783 13.1243 19.4002 10.8002 19.4002C6.05055 19.4002 2.2002 15.5498 2.2002 10.8002ZM17.5557 18.969C15.7215 20.4875 13.3675 21.4002 10.8002 21.4002C4.94598 21.4002 0.200195 16.6544 0.200195 10.8002C0.200195 4.94598 4.94598 0.200195 10.8002 0.200195C16.6544 0.200195 21.4002 4.94598 21.4002 10.8002C21.4002 13.367 20.4879 15.7206 18.9699 17.5547L23.5082 22.093C23.8987 22.4835 23.8987 23.1167 23.5082 23.5072C23.1176 23.8977 22.4845 23.8977 22.0939 23.5072L17.5557 18.969Z" fill="#434343"/>
</svg>
