<svg width="31" height="31" viewBox="0 0 31 31" fill="none" xmlns="http://www.w3.org/2000/svg">
<g id="icon_18_medium 1" clip-path="url(#clip0_137_1092)">
<g id="Group">
<path id="Vector" d="M15.0908 30.8188C23.4303 30.8188 30.1908 24.1031 30.1908 15.8188C30.1908 7.53458 23.4303 0.818848 15.0908 0.818848C6.75135 0.818848 -0.00915527 7.53458 -0.00915527 15.8188C-0.00915527 24.1031 6.75135 30.8188 15.0908 30.8188Z" fill="#E57C90"/>
<path id="Vector_2" d="M13.2909 20.6188C12.9909 20.6188 12.7909 20.5188 12.5909 20.3188L9.09089 16.8188C8.69089 16.4188 8.69089 15.8188 9.09089 15.4188C9.49089 15.0188 10.0909 15.0188 10.4909 15.4188L13.2909 18.2188L20.2909 11.3188C20.6909 10.9188 21.2909 10.9188 21.6909 11.3188C22.0909 11.7188 22.0909 12.3188 21.6909 12.7188L13.9909 20.3188C13.7909 20.5188 13.5909 20.6188 13.2909 20.6188Z" fill="white"/>
</g>
</g>
<defs>
<clipPath id="clip0_137_1092">
<rect width="31" height="30" fill="white" transform="translate(-0.00915527 0.818848)"/>
</clipPath>
</defs>
</svg>
