<svg xmlns="http://www.w3.org/2000/svg" width="12" height="12" viewBox="0 0 12 12" fill="none">
  <g clip-path="url(#clip0_1660_5928)">
    <path d="M8.27277 1.90878C8.39216 1.7894 8.53388 1.6947 8.68987 1.63009C8.84585 1.56548 9.01303 1.53223 9.18186 1.53223C9.3507 1.53223 9.51788 1.56548 9.67386 1.63009C9.82984 1.6947 9.97157 1.7894 10.091 1.90878C10.2103 2.02817 10.305 2.1699 10.3696 2.32588C10.4343 2.48186 10.4675 2.64904 10.4675 2.81788C10.4675 2.98671 10.4343 3.15389 10.3696 3.30987C10.305 3.46585 10.2103 3.60758 10.091 3.72697L3.95459 9.86333L1.45459 10.5451L2.13641 8.04515L8.27277 1.90878Z" fill="#D85888" stroke="#D85888" stroke-width="1.6" stroke-linecap="round" stroke-linejoin="round"/>
  </g>
  <defs>
    <clipPath id="clip0_1660_5928">
      <rect width="12" height="12" fill="white"/>
    </clipPath>
  </defs>
</svg>