<?xml version="1.0" encoding="UTF-8"?>
<svg id="Layer_1" data-name="Layer 1" xmlns="http://www.w3.org/2000/svg" viewBox="0 0 29.896 30.087">
  <defs>
    <style>
      .cls-1 {
        fill: #f98288;
      }

      .cls-1, .cls-2 {
        stroke-width: 0px;
      }

      .cls-2 {
        fill: #fff;
      }
    </style>
  </defs>
  <path class="cls-1" d="M27.276,21.364c1.1-2.043,1.724-4.381,1.724-6.864C29,6.492,22.508,0,14.5,0S0,6.492,0,14.5s6.492,14.5,14.5,14.5c2.754,0,5.33-.768,7.523-2.102l6.448,3.089c.799.382,1.659-.399,1.366-1.241l-2.561-7.382Z"/>
  <path class="cls-2" d="M19.225,12.239c0-.985-.327-1.943-.934-2.724-.607-.782-1.458-1.344-2.422-1.599-.964-.255-1.986-.188-2.907.189-.921.377-1.691,1.045-2.189,1.898-.172.294-.218.642-.129.97.089.327.306.606.603.776.297.169.651.215.982.127s.614-.302.786-.596c.171-.291.416-.533.711-.701.295-.168.63-.257.971-.257.515,0,1.008.202,1.372.561.364.359.568.847.568,1.355s-.204.996-.568,1.355c-.364.359-.858.561-1.372.561h-.004c-.083.008-.166.025-.246.05-.087.009-.173.026-.256.051-.071.038-.138.083-.2.134-.074.04-.144.087-.21.141-.058.069-.109.143-.151.222-.047.057-.089.119-.125.184-.028.088-.047.179-.056.271-.022.073-.037.149-.045.225v1.277l.003.014v.627c0,.338.137.663.38.902.242.239.571.373.914.373h.004c.17,0,.338-.034.495-.098.157-.064.299-.159.419-.278.12-.119.215-.26.28-.415s.098-.321.097-.489l-.003-.846c.931-.273,1.748-.835,2.331-1.603.582-.768.899-1.7.902-2.659ZM13.787,20.913c-.182.178-.306.405-.357.653-.051.248-.026.504.071.738.097.234.262.434.474.575.212.141.462.217.718.218.343-.003.672-.135.919-.37.24-.242.375-.568.375-.907s-.135-.665-.375-.907c-.248-.228-.574-.355-.912-.355s-.664.127-.912.355Z"/>
</svg>