<svg xmlns="http://www.w3.org/2000/svg" width="20" height="20" viewBox="0 0 20 20" fill="none">
  <path d="M17.5003 8.33325C17.6098 8.33328 17.7181 8.31174 17.8193 8.26987C17.9204 8.22801 18.0123 8.16662 18.0896 8.08924C18.167 8.01185 18.2284 7.91997 18.2703 7.81885C18.3122 7.71774 18.3337 7.60936 18.3337 7.49992V4.99992C18.3337 4.82506 18.2787 4.65463 18.1765 4.51279C18.0742 4.37095 17.9299 4.26491 17.764 4.20972L10.264 1.70972C10.0928 1.65275 9.90782 1.65275 9.73665 1.70972L2.23665 4.20972C2.07074 4.26491 1.92642 4.37095 1.82416 4.51279C1.72191 4.65463 1.66692 4.82506 1.66699 4.99992V7.49992C1.66696 7.60936 1.6885 7.71774 1.73037 7.81885C1.77224 7.91997 1.83362 8.01185 1.91101 8.08924C1.98839 8.16662 2.08027 8.22801 2.18139 8.26987C2.28251 8.31174 2.39088 8.33328 2.50033 8.33325H3.33366V14.3201C2.84761 14.4914 2.42646 14.8088 2.12805 15.2289C1.82963 15.6491 1.66858 16.1513 1.66699 16.6666V18.3333C1.66696 18.4427 1.6885 18.5511 1.73037 18.6522C1.77224 18.7533 1.83362 18.8452 1.91101 18.9226C1.98839 19 2.08027 19.0613 2.18139 19.1032C2.28251 19.1451 2.39088 19.1666 2.50033 19.1666H17.5003C17.6098 19.1666 17.7181 19.1451 17.8193 19.1032C17.9204 19.0613 18.0123 19 18.0896 18.9226C18.167 18.8452 18.2284 18.7533 18.2703 18.6522C18.3122 18.5511 18.3337 18.4427 18.3337 18.3333V16.6666C18.3321 16.1513 18.171 15.6491 17.8726 15.2289C17.5742 14.8088 17.153 14.4914 16.667 14.3201V8.33325H17.5003ZM16.667 17.4999H3.33366V16.6666C3.33388 16.4456 3.42175 16.2338 3.57798 16.0776C3.73421 15.9213 3.94605 15.8335 4.16699 15.8333H15.8337C16.0546 15.8335 16.2664 15.9213 16.4227 16.0776C16.5789 16.2338 16.6668 16.4456 16.667 16.6666V17.4999ZM5.00033 14.1666V8.33325H6.66699V14.1666H5.00033ZM8.33366 14.1666V8.33325H11.667V14.1666H8.33366ZM13.3337 14.1666V8.33325H15.0003V14.1666H13.3337ZM3.33366 6.66658V5.6005L10.0003 3.378L16.667 5.6005V6.66658H3.33366Z" fill="#434343" fill-opacity="0.6"/>
</svg>