<svg xmlns="http://www.w3.org/2000/svg" width="4.44vw" height="4.44vw" viewBox="0 0 16 16" fill="none">
  <path d="M11.0304 2.54505C11.1895 2.38587 11.3785 2.2596 11.5865 2.17345C11.7945 2.08731 12.0174 2.04297 12.2425 2.04297C12.4676 2.04297 12.6905 2.08731 12.8985 2.17345C13.1065 2.2596 13.2954 2.38587 13.4546 2.54505C13.6138 2.70422 13.7401 2.8932 13.8262 3.10117C13.9123 3.30915 13.9567 3.53206 13.9567 3.75717C13.9567 3.98228 13.9123 4.20519 13.8262 4.41316C13.7401 4.62114 13.6138 4.81011 13.4546 4.96929L5.27279 13.1511L1.93945 14.0602L2.84854 10.7269L11.0304 2.54505Z" fill="#D85888" stroke="#D85888" stroke-width="1.6" stroke-linecap="round" stroke-linejoin="round"/>
</svg>