<svg xmlns="http://www.w3.org/2000/svg" width="16" height="16" viewBox="0 0 16 16" fill="none">
  <path fill-rule="evenodd" clip-rule="evenodd" d="M5.33379 0.533203C5.77562 0.533203 6.13379 0.891375 6.13379 1.3332V1.86667H9.8666V1.3332C9.8666 0.891375 10.2248 0.533203 10.6666 0.533203C11.1084 0.533203 11.4666 0.891375 11.4666 1.3332V1.86667H12.6669C13.8451 1.86667 14.8002 2.82179 14.8002 4V13.3333C14.8002 14.5115 13.8451 15.4667 12.6669 15.4667H3.33353C2.15532 15.4667 1.2002 14.5115 1.2002 13.3333V4C1.2002 2.82179 2.15532 1.86667 3.33353 1.86667H4.53379V1.3332C4.53379 0.891375 4.89196 0.533203 5.33379 0.533203ZM4.53379 3.46667H3.33353C3.03898 3.46667 2.8002 3.70545 2.8002 4V5.86667H13.2002V4C13.2002 3.70545 12.9614 3.46667 12.6669 3.46667H11.4666V3.99987C11.4666 4.4417 11.1084 4.79987 10.6666 4.79987C10.2248 4.79987 9.8666 4.4417 9.8666 3.99987V3.46667H6.13379V3.99987C6.13379 4.4417 5.77562 4.79987 5.33379 4.79987C4.89196 4.79987 4.53379 4.4417 4.53379 3.99987V3.46667ZM13.2002 7.46667H2.8002V13.3333C2.8002 13.6279 3.03898 13.8667 3.33353 13.8667H12.6669C12.9614 13.8667 13.2002 13.6279 13.2002 13.3333V7.46667Z" fill="#D85888"/>
</svg>