<svg xmlns="http://www.w3.org/2000/svg" width="16" height="16" viewBox="0 0 16 16" fill="none">
  <path fill-rule="evenodd" clip-rule="evenodd" d="M12.6665 13.1998C12.961 13.1998 13.1998 12.961 13.1998 12.6665L13.1998 3.33314C13.1998 3.03859 12.961 2.7998 12.6665 2.7998L3.33314 2.7998C3.03859 2.7998 2.79981 3.03859 2.79981 3.33314L2.7998 12.6665C2.7998 12.961 3.03859 13.1998 3.33314 13.1998L12.6665 13.1998ZM14.7998 12.6665C14.7998 13.8447 13.8447 14.7998 12.6665 14.7998L3.33314 14.7998C2.15493 14.7998 1.1998 13.8447 1.1998 12.6665L1.19981 3.33314C1.19981 2.15493 2.15493 1.1998 3.33314 1.1998L12.6665 1.1998C13.8447 1.1998 14.7998 2.15493 14.7998 3.33314L14.7998 12.6665Z" fill="#D85888"/>
  <path fill-rule="evenodd" clip-rule="evenodd" d="M4.6665 11.333L4.6665 7.99967L6.6665 7.99967L6.6665 11.333L4.6665 11.333Z" fill="#D85888"/>
  <path fill-rule="evenodd" clip-rule="evenodd" d="M9.3335 11.333L9.3335 5.33301L11.3335 5.33301L11.3335 11.333L9.3335 11.333Z" fill="#D85888"/>
</svg>