<svg xmlns="http://www.w3.org/2000/svg" width="4.44vw" height="4.44vw" viewBox="0 0 16 16" fill="none">
  <path d="M14.3 13.6H13.6V3.1C13.6 2.91435 13.5263 2.7363 13.395 2.60503C13.2637 2.47375 13.0857 2.4 12.9 2.4C12.7143 2.4 12.5363 2.47375 12.405 2.60503C12.2737 2.7363 12.2 2.91435 12.2 3.1V13.6H10.8V5.9C10.8 5.71435 10.7262 5.5363 10.595 5.40503C10.4637 5.27375 10.2857 5.2 10.1 5.2C9.91435 5.2 9.7363 5.27375 9.60503 5.40503C9.47375 5.5363 9.4 5.71435 9.4 5.9V13.6H8V8.7C8 8.51435 7.92625 8.3363 7.79497 8.20503C7.6637 8.07375 7.48565 8 7.3 8C7.11435 8 6.9363 8.07375 6.80503 8.20503C6.67375 8.3363 6.6 8.51435 6.6 8.7V13.6H5.2V11.5C5.2 11.3143 5.12625 11.1363 4.99497 11.005C4.8637 10.8737 4.68565 10.8 4.5 10.8C4.31435 10.8 4.1363 10.8737 4.00503 11.005C3.87375 11.1363 3.8 11.3143 3.8 11.5V13.6H2.4V1.7C2.4 1.51435 2.32625 1.3363 2.19497 1.20503C2.0637 1.07375 1.88565 1 1.7 1C1.51435 1 1.3363 1.07375 1.20503 1.20503C1.07375 1.3363 1 1.51435 1 1.7V14.3C1 14.4857 1.07375 14.6637 1.20503 14.795C1.3363 14.9263 1.51435 15 1.7 15H14.3C14.4857 15 14.6637 14.9263 14.795 14.795C14.9263 14.6637 15 14.4857 15 14.3C15 14.1143 14.9263 13.9363 14.795 13.805C14.6637 13.6737 14.4857 13.6 14.3 13.6Z" fill="#D85888"/>
</svg>