<svg xmlns="http://www.w3.org/2000/svg" width="4.44vw" height="4.44vw" viewBox="0 0 16 16" fill="none">
  <path fill-rule="evenodd" clip-rule="evenodd" d="M4 9.66699C4.55228 9.66699 5 10.1147 5 10.667V13.3337C5 13.8859 4.55228 14.3337 4 14.3337C3.44772 14.3337 3 13.8859 3 13.3337V10.667C3 10.1147 3.44772 9.66699 4 9.66699Z" fill="#D85888"/>
  <path fill-rule="evenodd" clip-rule="evenodd" d="M8 5.66699C8.55228 5.66699 9 6.11471 9 6.66699V13.3337C9 13.8859 8.55228 14.3337 8 14.3337C7.44772 14.3337 7 13.8859 7 13.3337V6.66699C7 6.11471 7.44772 5.66699 8 5.66699Z" fill="#D85888"/>
  <path fill-rule="evenodd" clip-rule="evenodd" d="M12 1.66699C12.5523 1.66699 13 2.11471 13 2.66699V13.3337C13 13.8859 12.5523 14.3337 12 14.3337C11.4477 14.3337 11 13.8859 11 13.3337V2.66699C11 2.11471 11.4477 1.66699 12 1.66699Z" fill="#D85888"/>
</svg>