<svg xmlns="http://www.w3.org/2000/svg" width="28" height="26" viewBox="0 0 28 26" fill="none">
  <path d="M27.0362 13C27.0362 20.1797 21.0903 26 13.7557 26C6.42101 26 0.475098 20.1797 0.475098 13C0.475098 5.8203 6.42101 0 13.7557 0C21.0903 0 27.0362 5.8203 27.0362 13Z" fill="#FDF2F2"/>
  <path d="M15.3169 6.35138C15.8912 6.11843 16.5061 5.99878 17.1266 5.99878C17.7471 5.99878 18.362 6.11843 18.9363 6.35138C19.5107 6.58435 20.0339 6.92635 20.4756 7.35888C20.9173 7.79118 21.2689 8.30558 21.5092 8.87329C21.7496 9.44118 21.8736 10.0506 21.8736 10.6667C21.8736 11.2827 21.7496 11.8922 21.5092 12.46C21.2689 13.0278 20.9172 13.5423 20.4754 13.9746L14.4549 19.8679C14.0662 20.2485 13.4446 20.2485 13.0558 19.8679L7.03532 13.9746C6.14286 13.101 5.63746 11.9115 5.63746 10.6667C5.63746 9.42179 6.14286 8.23232 7.03532 7.35872C7.92705 6.48582 9.13205 5.99914 10.3841 5.99914C11.6362 5.99914 12.8412 6.48582 13.733 7.35872L13.7554 7.38065L13.7776 7.35888C14.2192 6.92643 14.7425 6.58432 15.3169 6.35138Z" fill="#F5BDBD"/>
</svg>