<svg width="17" height="16" viewBox="0 0 17 16" fill="none" xmlns="http://www.w3.org/2000/svg">
<g id="fi:heart" clip-path="url(#clip0_338_1223)">
<path id="Vector" d="M14.776 3.07357C14.4281 2.73291 14.0151 2.46267 13.5606 2.2783C13.106 2.09392 12.6187 1.99902 12.1267 1.99902C11.6346 1.99902 11.1474 2.09392 10.6928 2.2783C10.2383 2.46267 9.82524 2.73291 9.47739 3.07357L8.75547 3.78024L8.03356 3.07357C7.33092 2.38578 6.37793 1.99938 5.38425 1.99938C4.39057 1.99938 3.43759 2.38578 2.73495 3.07357C2.03231 3.76137 1.63757 4.69422 1.63757 5.66691C1.63757 6.6396 2.03231 7.57245 2.73495 8.26024L3.45687 8.96691L8.75547 14.1536L14.0541 8.96691L14.776 8.26024C15.124 7.91974 15.4001 7.51545 15.5884 7.07048C15.7768 6.6255 15.8737 6.14857 15.8737 5.66691C15.8737 5.18525 15.7768 4.70831 15.5884 4.26334C15.4001 3.81836 15.124 3.41408 14.776 3.07357Z" fill="#F5BDBD" stroke="#F5BDBD" stroke-width="2" stroke-linecap="round" stroke-linejoin="round"/>
</g>
<defs>
<clipPath id="clip0_338_1223">
<rect width="16.3453" height="16" fill="white" transform="translate(0.582764)"/>
</clipPath>
</defs>
</svg>
