<svg width="14" height="16" viewBox="0 0 14 16" fill="none" xmlns="http://www.w3.org/2000/svg">
<g id="u:exchange-alt" clip-path="url(#clip0_338_1193)">
<path id="Vector" d="M8.14504 14.4733L10.3599 11.8066C10.4115 11.7444 10.4524 11.6706 10.4804 11.5894C10.5083 11.5082 10.5227 11.4212 10.5227 11.3333C10.5227 11.1557 10.4641 10.9855 10.3599 10.8599C10.2556 10.7344 10.1142 10.6639 9.96673 10.6639C9.81928 10.6639 9.67787 10.7344 9.5736 10.8599L8.30561 12.3933L8.30561 4.6666C8.30561 4.48979 8.24728 4.32022 8.14344 4.19519C8.0396 4.07017 7.89876 3.99993 7.75191 3.99993C7.60505 3.99993 7.46422 4.07017 7.36038 4.19519C7.25654 4.32022 7.1982 4.48979 7.1982 4.6666L7.1982 13.9999C7.19875 14.1315 7.23164 14.26 7.29273 14.3692C7.35382 14.4783 7.44038 14.5632 7.5415 14.6133C7.64233 14.6643 7.75347 14.6783 7.86088 14.6533C7.9683 14.6284 8.06717 14.5658 8.14504 14.4733ZM6.09079 11.3333L6.09079 1.99993C6.09024 1.86831 6.05735 1.73984 5.99626 1.63069C5.93517 1.52154 5.84861 1.43661 5.74749 1.3866C5.64665 1.33554 5.53552 1.3216 5.4281 1.34651C5.32069 1.37143 5.22181 1.43409 5.14395 1.5266L2.92912 4.19326C2.87723 4.25524 2.83603 4.32897 2.80792 4.41021C2.77981 4.49145 2.76534 4.57859 2.76534 4.6666C2.76534 4.7546 2.77981 4.84174 2.80792 4.92298C2.83603 5.00422 2.87723 5.07795 2.92912 5.13993C2.9806 5.20242 3.04184 5.25201 3.10931 5.28586C3.17679 5.3197 3.24916 5.33713 3.32225 5.33713C3.39535 5.33713 3.46772 5.3197 3.5352 5.28586C3.60267 5.25201 3.66391 5.20242 3.71539 5.13993L4.98337 3.6066L4.98337 11.3333C4.98337 11.5101 5.04171 11.6796 5.14555 11.8047C5.24939 11.9297 5.39023 11.9999 5.53708 11.9999C5.68393 11.9999 5.82477 11.9297 5.92861 11.8047C6.03245 11.6796 6.09079 11.5101 6.09079 11.3333Z" fill="#A8A8A8"/>
</g>
<defs>
<clipPath id="clip0_338_1193">
<rect width="16" height="13.289" fill="white" transform="translate(13.2891) rotate(90)"/>
</clipPath>
</defs>
</svg>
